<?xml version="1.0" standalone="no"?>
<!DOCTYPE svg PUBLIC "-//W3C//DTD SVG 20010904//EN"
 "http://www.w3.org/TR/2001/REC-SVG-20010904/DTD/svg10.dtd">
<svg version="1.0" xmlns="http://www.w3.org/2000/svg"
 width="465.000000pt" height="465.000000pt" viewBox="0 0 465.000000 465.000000"
 preserveAspectRatio="xMidYMid meet">
<metadata>
Created by potrace 1.14, written by Peter Selinger 2001-2017
</metadata>
<g transform="translate(0.000000,465.000000) scale(0.100000,-0.100000)"
fill="#000000" stroke="none">
<path d="M2066 4642 c-3 -3 -59 -11 -123 -17 -65 -7 -98 -13 -73 -14 52 -1
300 25 307 33 3 3 -19 5 -50 5 -31 -1 -58 -4 -61 -7z"/>
<path d="M1730 4600 c-21 -7 -21 -8 -5 -9 11 0 27 4 35 9 18 11 5 11 -30 0z"/>
<path d="M1663 4583 c9 -2 23 -2 30 0 6 3 -1 5 -18 5 -16 0 -22 -2 -12 -5z"/>
<path d="M1705 4504 c-80 -17 -197 -55 -295 -96 -63 -26 -118 -48 -122 -48
-14 0 -218 -101 -224 -111 -13 -21 4 -17 74 16 40 19 77 35 82 35 6 0 10 5 10
11 0 5 5 7 11 3 6 -3 14 -2 18 3 6 10 121 60 246 108 89 34 108 39 101 27 -7
-11 137 38 150 51 8 7 -17 8 -51 1z"/>
<path d="M3380 4490 c0 -6 6 -10 13 -10 12 0 121 -58 207 -110 75 -45 215
-200 258 -285 36 -71 72 -168 72 -192 0 -24 -14 -31 -25 -13 -11 18 -35 -17
-35 -49 0 -42 -13 -39 -35 9 -10 22 -22 40 -27 40 -12 0 -10 -6 12 -50 11 -22
20 -43 20 -48 0 -15 -32 -9 -42 8 -12 18 -19 15 -68 -31 -16 -15 -18 -15 -31
3 -8 11 -22 31 -31 43 -10 13 -18 30 -18 38 0 9 -5 19 -11 23 -12 7 -5 -94 12
-181 20 -100 20 -102 9 -82 -12 19 -35 24 -24 5 6 -10 4 -10 -7 0 -18 16 -29
15 -29 -3 0 -14 -34 -34 -70 -39 -32 -6 -13 -29 32 -41 26 -6 45 -8 42 -3 -7
11 3 10 27 -2 14 -8 19 -7 19 2 0 10 2 10 9 0 4 -8 12 -13 17 -13 16 3 37
-231 38 -419 1 -189 -3 -218 -54 -455 -18 -80 -105 -363 -115 -374 -3 -3 -20
10 -37 28 -22 24 -28 35 -19 44 6 6 11 20 10 31 -1 18 -2 17 -9 -4 -7 -23 -8
-23 -9 -3 -1 12 -4 28 -7 37 -4 11 -1 16 11 16 9 0 13 5 10 10 -11 17 -36 -10
-30 -31 4 -10 2 -27 -4 -36 -6 -11 -11 -13 -11 -5 0 7 -5 10 -10 7 -15 -9 -42
15 -36 32 3 7 2 13 -2 13 -4 0 -8 11 -8 23 -1 13 -7 64 -14 113 -6 49 -15 151
-19 226 -5 94 -11 142 -20 150 -14 14 -15 20 10 -247 18 -193 19 -255 5 -255
-22 0 -63 38 -76 70 -10 24 -15 28 -22 18 -8 -10 -11 -10 -15 0 -2 6 -14 12
-25 12 -17 0 -18 2 -8 15 11 13 10 14 -3 9 -9 -3 -30 5 -49 19 -18 14 -55 35
-83 47 -27 13 -58 32 -67 43 -20 22 -23 52 -8 62 13 8 13 52 0 60 -6 4 -10 21
-8 39 1 17 -2 37 -6 44 -4 7 -2 19 4 27 7 8 9 23 5 32 -6 17 -7 17 -21 -1 -13
-18 -14 -17 -14 22 0 32 4 42 16 42 11 0 14 5 10 16 -3 9 -6 18 -6 20 0 3 -4
2 -10 -1 -6 -4 -10 6 -10 22 l0 28 20 -25 20 -25 1 40 1 40 13 -35 c16 -43 20
-93 5 -70 -5 8 -10 10 -10 4 0 -6 11 -23 25 -38 14 -15 25 -34 25 -42 0 -7 5
-14 11 -14 7 0 8 7 4 18 -4 9 -10 28 -12 42 -5 24 -5 25 10 5 8 -11 20 -40 26
-63 7 -23 14 -42 17 -42 9 0 -7 121 -22 165 -7 22 -20 83 -29 135 -8 52 -18
105 -20 118 -4 15 -1 22 10 22 8 0 15 7 15 16 0 14 -3 14 -15 4 -17 -14 -20
-3 -9 38 8 28 24 29 24 1 0 -14 5 -19 18 -17 13 3 17 13 15 43 0 22 1 30 4 18
7 -36 21 -27 28 20 14 90 17 103 30 120 9 13 20 16 39 11 24 -6 26 -9 20 -43
-4 -20 -7 -40 -7 -46 0 -10 7 -116 19 -297 4 -54 11 -98 15 -98 11 0 12 17 9
149 -2 80 1 102 11 99 13 -4 14 -8 23 -101 9 -98 18 -147 28 -153 6 -4 8 25 4
82 -3 49 -11 159 -17 244 -5 85 -17 175 -25 200 -8 25 -14 70 -14 100 -1 45
-3 51 -12 36 -7 -12 -8 -46 -4 -95 4 -52 3 -71 -4 -61 -5 8 -10 22 -10 31 0
21 -37 20 -50 -1 -7 -11 -28 -15 -82 -15 -68 0 -72 -1 -79 -25 -14 -49 -9 111
5 173 19 85 33 187 26 187 -4 0 -22 -21 -40 -47 -19 -27 -37 -50 -40 -53 -3
-3 -18 -26 -33 -52 -15 -26 -40 -53 -55 -60 -17 -9 -27 -21 -26 -35 0 -12 -3
-20 -7 -17 -4 2 -10 -2 -13 -8 -3 -7 -4 0 -1 15 3 16 15 38 26 50 28 30 52 77
43 85 -4 4 -9 1 -11 -6 -3 -7 -15 -25 -27 -40 -58 -70 -129 -200 -205 -376
-81 -185 -99 -236 -197 -550 -8 -26 -13 -50 -11 -52 2 -3 14 27 26 66 12 39
26 68 30 66 4 -3 7 5 7 17 -1 12 4 21 11 20 8 -2 12 7 11 20 0 12 7 36 16 52
16 30 16 29 20 -17 1 -7 -5 -12 -12 -10 -10 2 -10 -2 -2 -18 6 -11 8 -24 5
-29 -8 -14 6 -42 17 -35 5 4 7 21 3 40 -3 21 -2 34 5 34 15 0 12 -67 -5 -99
-17 -35 -7 -51 13 -19 15 25 15 25 -20 -72 -11 -30 -24 -59 -29 -64 -5 -6 -9
-22 -9 -37 0 -15 -9 -72 -19 -126 -11 -54 -22 -123 -25 -153 l-5 -55 10 50
c33 164 57 257 109 414 32 97 71 205 88 241 16 36 51 115 77 175 51 118 69
148 60 100 -20 -116 -25 -187 -25 -387 0 -137 -4 -229 -10 -233 -5 -3 -19 -1
-30 5 -12 6 -38 10 -58 8 -37 -3 -37 -3 23 -22 33 -10 63 -23 67 -29 4 -7 8
-35 8 -63 0 -28 4 -75 9 -105 6 -30 15 -88 22 -129 10 -66 45 -203 64 -252 7
-17 5 -17 -28 -3 -42 17 -204 45 -266 45 -34 0 -42 -3 -38 -14 4 -9 -2 -17
-14 -21 -10 -4 -26 -22 -34 -41 -10 -24 -20 -34 -36 -34 -16 0 -20 -3 -12 -11
7 -7 36 -7 98 2 85 11 204 6 248 -10 17 -7 14 -9 -19 -14 -27 -5 -56 -21 -92
-53 -69 -61 -80 -81 -53 -101 31 -21 26 -32 -13 -26 -31 5 -34 3 -45 -28 -7
-19 -15 -69 -18 -113 -6 -73 -5 -78 13 -74 13 3 18 11 17 26 -2 12 2 22 7 22
6 0 10 -6 10 -14 0 -15 21 -26 49 -26 12 0 22 -16 34 -54 12 -36 29 -65 53
-85 31 -28 41 -31 99 -31 36 0 65 -4 65 -9 0 -5 8 -7 19 -4 14 3 20 -2 25 -22
8 -31 -8 -55 -36 -55 -10 0 -17 -4 -13 -9 8 -14 -59 -24 -115 -18 -70 8 -138
44 -171 90 -31 43 -38 43 -15 -1 32 -62 107 -100 217 -109 115 -10 249 46 312
132 17 22 27 31 22 20 -18 -49 -18 -56 1 -49 11 4 29 16 41 27 28 25 43 14 18
-13 -10 -11 -15 -23 -12 -26 4 -4 9 1 13 10 9 25 21 19 27 -14 7 -30 -21 -100
-73 -185 -79 -130 -297 -359 -420 -442 -42 -28 -82 -58 -89 -67 -7 -9 -19 -16
-25 -16 -6 0 -28 -9 -49 -20 -21 -12 -64 -30 -95 -42 -31 -11 -64 -27 -73 -34
-8 -8 -21 -14 -28 -14 -7 0 -10 -4 -7 -9 3 -5 -4 -11 -15 -14 -30 -8 -21 -41
13 -45 14 -2 45 6 67 17 22 12 47 21 55 21 14 0 118 42 214 86 59 27 77 30 66
12 -5 -9 -3 -9 9 1 9 7 15 17 12 21 -6 9 33 25 41 17 9 -9 -214 -229 -225
-223 -5 4 -13 1 -17 -5 -5 -8 -3 -9 6 -4 8 5 11 3 8 -6 -3 -8 -12 -13 -21 -13
-10 1 -13 -4 -9 -14 4 -11 1 -14 -10 -9 -10 3 -25 -4 -39 -20 -13 -15 -18 -23
-11 -19 21 12 13 -6 -14 -31 -14 -13 -31 -20 -37 -17 -7 4 -9 3 -4 -1 4 -5
-14 -31 -40 -58 -85 -88 -19 -36 134 105 145 135 256 250 300 312 12 17 51 53
86 81 36 27 63 53 61 56 -2 3 19 18 46 33 27 15 74 47 105 72 68 56 83 53 21
-4 -24 -22 -41 -43 -38 -46 3 -3 0 -6 -6 -6 -7 0 -12 -6 -12 -13 0 -7 -11 -24
-25 -39 -14 -15 -25 -32 -25 -38 0 -5 -4 -10 -10 -10 -5 0 -10 -6 -10 -14 0
-8 -8 -17 -17 -20 -21 -7 -189 -167 -186 -177 1 -4 -4 -6 -11 -5 -7 0 -33 -16
-57 -36 -410 -342 -433 -358 -534 -358 -23 0 -55 -4 -71 -10 -16 -5 -74 -11
-129 -13 -55 -2 -108 -7 -117 -11 -13 -6 -24 -1 -37 15 -11 13 -32 38 -46 54
l-26 30 22 -42 c11 -24 19 -48 17 -54 -3 -10 -38 -22 -117 -41 -9 -2 -18 10
-23 32 -5 19 -15 53 -21 75 l-12 40 -3 -60 c-2 -34 1 -72 6 -85 8 -22 4 -30
-32 -62 -55 -51 -27 -49 32 2 62 52 107 66 249 80 65 6 156 15 203 19 47 5 93
12 103 16 10 4 17 3 17 -4 0 -6 -6 -11 -14 -11 -8 0 -29 -16 -47 -35 -18 -19
-62 -49 -98 -67 -51 -24 -61 -33 -44 -36 12 -2 36 4 54 13 17 9 54 23 81 31
26 8 70 24 96 36 55 25 71 29 95 29 9 0 15 4 12 9 -3 5 -1 11 5 15 5 3 10 1
10 -4 0 -6 4 -11 10 -11 5 0 9 6 7 12 -1 7 19 20 45 29 26 8 51 19 55 22 3 4
28 7 54 7 42 0 48 2 42 18 -4 13 -3 14 6 6 9 -8 31 -6 84 9 40 10 74 23 75 28
2 5 10 9 17 9 7 0 15 9 18 20 5 20 5 20 -20 0 -34 -27 -40 -19 -11 13 29 31
52 22 42 -16 -3 -15 -11 -27 -18 -27 -28 -1 25 -18 75 -24 30 -4 68 -14 83
-21 16 -8 38 -15 49 -15 11 0 41 -13 66 -30 26 -16 64 -36 86 -46 34 -14 37
-14 26 -1 -7 9 -24 18 -39 22 -15 3 -47 21 -71 40 -26 21 -55 35 -72 35 -33 0
-43 13 -45 63 -2 33 2 39 29 54 18 8 36 22 40 29 4 8 13 14 20 14 7 0 23 12
37 27 29 32 14 24 -56 -29 -28 -21 -80 -50 -115 -64 -35 -14 -68 -30 -73 -34
-9 -9 77 14 95 26 7 4 9 -6 7 -27 -3 -33 -4 -34 -47 -32 -25 1 -51 9 -60 18
-18 18 -22 14 84 89 30 22 55 46 55 54 0 12 -5 10 -23 -6 -13 -12 -27 -22 -31
-22 -4 0 -16 -10 -27 -23 -16 -19 -20 -20 -28 -7 -8 12 -5 17 14 23 14 5 25
13 25 18 0 5 5 9 12 9 6 0 19 7 29 16 13 11 22 13 35 6 14 -8 26 -4 53 16 82
60 210 170 263 227 32 33 58 55 58 49 0 -6 -9 -19 -20 -29 -11 -10 -20 -24
-20 -32 0 -7 -3 -13 -8 -13 -11 0 -34 -40 -37 -67 -1 -13 -10 -32 -20 -43 -9
-10 -14 -24 -9 -31 5 -8 3 -10 -6 -4 -10 6 -12 4 -7 -8 6 -16 -4 -22 -28 -17
-5 1 -7 -2 -3 -6 9 -8 -49 -64 -66 -64 -6 0 -5 5 2 12 16 16 15 25 -4 32 -8 3
-12 2 -9 -4 9 -14 -4 -51 -16 -45 -5 4 -9 -2 -9 -13 0 -10 -9 -28 -20 -40 -22
-24 -25 -32 -10 -32 14 0 90 -82 90 -97 0 -7 11 -23 25 -35 14 -13 26 -36 27
-51 3 -30 8 -33 27 -15 11 11 12 9 7 -8 -6 -19 3 -27 63 -58 91 -47 116 -47
31 0 -74 41 -82 50 -77 82 3 15 -2 26 -14 33 -23 12 -25 37 -3 46 34 13 193
139 290 231 56 52 116 101 134 108 18 8 60 37 94 66 33 29 69 59 80 67 12 11
7 -3 -14 -39 -87 -148 -163 -236 -300 -351 -60 -50 -110 -94 -110 -96 0 -2 27
14 59 37 33 22 62 40 66 40 21 0 302 207 378 279 27 25 36 30 31 16 -4 -11
-10 -22 -14 -25 -3 -3 -21 -30 -40 -60 -18 -30 -50 -75 -69 -100 -43 -53 -93
-131 -88 -136 2 -2 22 25 45 59 24 34 58 82 77 107 19 25 51 72 71 105 67 109
195 275 213 275 9 0 22 5 29 12 20 20 14 -2 -8 -30 -12 -15 -53 -69 -93 -121
-81 -105 -156 -214 -152 -219 6 -6 60 43 275 246 36 34 68 62 72 62 4 0 37 35
74 78 64 73 107 113 89 81 -4 -8 -17 -24 -29 -37 -17 -20 -18 -24 -6 -32 13
-8 12 -10 -2 -10 -11 0 -18 -8 -18 -19 0 -11 -7 -27 -16 -35 -8 -9 -11 -16 -5
-16 6 0 11 -8 12 -17 0 -12 2 -13 6 -5 6 16 32 -15 32 -38 0 -11 -3 -10 -14 4
-13 17 -15 17 -15 3 0 -9 6 -22 13 -29 8 -6 11 -23 9 -36 -9 -46 -149 -168
-230 -201 -18 -8 -31 -16 -29 -18 7 -6 58 19 117 57 85 57 84 56 65 19 -40
-80 -131 -217 -172 -259 -23 -25 -43 -49 -43 -53 0 -18 98 52 166 118 176 172
214 211 214 223 0 8 -38 -25 -84 -73 -55 -57 -90 -86 -100 -82 -8 3 -17 -1
-20 -9 -4 -10 -2 -13 7 -8 9 5 9 4 0 -7 -10 -10 -16 -10 -25 -1 -9 9 -7 19 10
42 12 16 22 32 22 34 0 15 74 118 119 165 50 52 67 89 36 77 -25 -9 -17 10 10
24 l25 13 0 446 c0 390 -2 449 -16 469 -8 12 -13 28 -11 35 3 7 6 5 6 -5 1 -9
5 -20 11 -23 6 -4 9 113 9 322 -1 180 -3 324 -5 318 -2 -5 -12 -71 -24 -145
-24 -160 -49 -302 -55 -308 -4 -4 -17 24 -65 144 -24 58 -29 87 -31 162 -1 54
3 97 9 105 6 7 9 23 5 35 -3 13 -1 22 6 22 6 0 11 14 11 30 0 17 4 30 8 30 4
0 8 12 7 28 0 16 5 26 13 24 8 -1 12 12 12 41 0 24 7 68 17 98 16 54 18 102 6
123 -4 6 -6 22 -4 35 2 15 -1 21 -8 17 -6 -4 -11 -16 -11 -26 0 -10 -5 -22
-12 -26 -8 -5 -9 2 -4 27 3 19 9 51 13 72 3 20 10 37 16 37 5 0 7 -13 4 -29
-5 -25 -3 -29 13 -28 10 1 19 8 19 17 0 8 4 38 10 65 10 59 6 72 -10 27 -11
-33 -29 -43 -29 -16 0 8 4 13 9 9 6 -3 7 9 4 31 -4 26 -3 35 5 30 15 -9 64 46
52 58 -15 15 -12 36 5 36 21 0 19 22 -5 43 -21 18 -26 37 -10 37 6 0 10 9 10
21 0 11 4 17 10 14 6 -4 10 137 10 403 l0 409 -43 13 c-36 9 -54 9 -102 -4
-32 -8 -61 -20 -65 -25 -8 -14 -56 0 -107 32 -23 14 -43 24 -46 21 -2 -3 -14
7 -25 21 -12 14 -29 27 -40 28 -10 0 -19 8 -18 15 1 8 -4 17 -10 19 -6 2 -10
-12 -10 -38 1 -28 6 -44 16 -47 19 -7 70 -61 70 -74 0 -6 -8 -7 -17 -3 -10 4
-30 10 -44 12 -16 3 -32 16 -40 31 -8 15 -24 42 -37 61 -12 19 -27 51 -34 72
-6 22 -15 39 -20 39 -4 0 -8 5 -8 10 0 6 7 10 15 10 8 0 15 5 15 11 0 6 -8 8
-19 4 -24 -7 -41 10 -97 95 -39 60 -78 107 -155 187 -55 57 -144 90 -291 107
-29 3 -48 2 -48 -4z m1120 -610 l25 -8 -27 -1 c-16 -1 -28 -5 -28 -11 0 -5 -8
-10 -17 -10 -15 0 -16 2 -3 10 13 8 12 10 -3 10 -10 0 -15 5 -12 10 7 11 29
11 65 0z m3 -106 c3 -4 -9 -22 -28 -41 -19 -19 -35 -41 -35 -49 0 -8 -4 -14
-9 -14 -9 0 -51 -91 -51 -112 0 -10 2 -10 9 1 5 7 14 10 20 7 7 -5 11 2 11 18
0 22 49 108 69 120 4 3 13 1 20 -4 21 -13 9 -74 -35 -170 -44 -97 -64 -129
-81 -130 -15 0 -18 -30 -4 -30 5 0 4 -14 -2 -31 -12 -30 -12 -30 -18 -7 l-7
23 -1 -23 c-1 -12 -7 -33 -15 -45 -15 -23 -11 -77 5 -77 5 0 9 -4 9 -10 0 -5
-7 -7 -17 -3 -14 6 -15 0 -10 -49 5 -50 3 -57 -14 -61 -22 -6 -26 -37 -4 -37
8 0 23 17 34 38 26 48 26 40 0 -33 -11 -32 -21 -67 -22 -77 -1 -9 -3 -15 -6
-12 -3 3 -10 -21 -17 -53 -19 -92 -54 -203 -64 -203 -6 0 -10 19 -10 43 0 31
-3 38 -10 27 -16 -24 -12 104 6 200 72 392 129 611 191 733 26 52 66 80 86 61z
m-1492 -51 c-10 -17 -10 -16 -11 3 0 23 13 41 18 25 2 -6 -1 -18 -7 -28z
m1162 -76 c7 4 5 -2 -3 -13 -8 -10 -16 -21 -17 -23 -2 -2 -3 9 -2 25 0 16 3
23 6 16 2 -6 10 -9 16 -5z m-1018 -107 c3 -5 -1 -10 -9 -10 -9 0 -16 5 -16 10
0 6 4 10 9 10 6 0 13 -4 16 -10z m863 -25 c11 19 11 18 12 -9 0 -29 1 -29 15
-10 15 18 16 17 10 -16 -3 -23 -2 -28 3 -16 12 27 18 12 26 -59 4 -33 11 -85
16 -115 5 -30 19 -111 30 -180 12 -69 25 -141 31 -160 8 -30 35 -265 45 -385
2 -22 8 -60 14 -85 5 -25 11 -67 13 -95 1 -27 5 -52 9 -55 11 -9 11 -83 0
-110 l-11 -25 0 28 c-1 15 -5 27 -10 27 -5 0 -12 19 -16 43 -7 42 -20 67 -35
67 -5 0 -6 -37 -5 -82 4 -75 3 -81 -11 -63 -8 11 -17 36 -21 57 -3 21 -9 38
-12 38 -4 0 -6 23 -5 50 1 28 -3 53 -7 56 -5 3 -9 0 -9 -5 0 -6 -4 -11 -10
-11 -5 0 -10 9 -10 20 0 11 5 20 10 20 6 0 10 34 10 81 0 44 -4 78 -8 75 -5
-3 -8 -35 -7 -71 1 -48 -2 -65 -12 -65 -7 0 -13 5 -13 11 0 5 5 7 10 4 14 -8
13 1 -4 38 -8 18 -17 39 -20 47 -2 8 -2 -12 1 -45 9 -97 -4 -59 -23 65 -20
132 -24 573 -7 650 l11 45 2 -65 c3 -86 18 -42 18 50 -1 36 -3 55 -5 43 -8
-44 -24 -24 -17 22 4 29 3 45 -4 45 -6 0 -12 -10 -14 -22 -2 -13 -11 15 -20
62 -17 85 -17 113 1 69 8 -19 9 -15 6 21 -3 31 -2 37 3 20 8 -24 8 -24 20 -5z
m107 -62 c4 -27 13 -58 21 -70 8 -12 14 -26 14 -30 0 -4 -5 -1 -10 7 -8 12
-10 12 -11 -5 0 -11 -9 14 -19 55 -23 89 -23 90 -11 90 6 0 13 -21 16 -47z
m-161 -85 c-3 -5 0 -16 8 -25 21 -26 19 -758 -4 -923 -9 -69 -22 -143 -28
-165 -13 -45 -28 -114 -37 -162 -3 -18 -9 -33 -14 -33 -5 0 -9 -9 -9 -19 0
-16 -12 -47 -69 -186 -5 -11 -21 -51 -36 -90 -54 -137 -138 -292 -231 -426
-51 -74 -104 -144 -117 -155 -23 -20 -47 -21 -47 -2 0 6 6 8 13 5 10 -4 14 5
15 29 1 19 -3 34 -8 34 -6 0 -10 9 -10 20 0 11 -4 20 -10 20 -10 0 -14 -13
-11 -36 1 -6 -6 -11 -14 -11 -10 0 -14 6 -10 15 3 9 0 20 -7 25 -9 6 -8 7 4 3
12 -3 15 -1 11 10 -3 7 0 14 7 14 6 0 9 4 5 9 -3 5 2 16 10 24 8 9 15 18 15
22 0 3 16 31 36 62 36 57 121 223 142 278 6 17 27 73 47 125 46 121 74 218
120 405 19 83 40 166 45 185 8 31 30 159 60 365 14 91 7 352 -13 530 -19 167
-20 181 -2 135 10 -25 14 -29 15 -15 1 11 4 15 6 9 8 -20 65 -3 77 23 10 23
12 22 29 -32 10 -32 15 -61 12 -67z m-937 50 c-3 -7 -5 -2 -5 12 0 14 2 19 5
13 2 -7 2 -19 0 -25z m1489 -25 c-10 -26 -18 -8 -9 23 5 21 8 24 11 11 2 -10
1 -25 -2 -34z m-1459 -5 c-3 -8 -6 -5 -6 6 -1 11 2 17 5 13 3 -3 4 -12 1 -19z
m-20 -10 c-3 -8 -6 -5 -6 6 -1 11 2 17 5 13 3 -3 4 -12 1 -19z m1473 -23 c0
-8 -5 -14 -12 -12 -6 1 -14 -7 -16 -17 -3 -15 0 -18 18 -13 24 6 24 0 0 -151
-6 -40 -9 -79 -6 -87 9 -25 -10 -25 -34 0 -13 13 -27 22 -31 19 -5 -3 -9 1
-10 8 0 7 -4 4 -9 -7 -11 -27 -12 -44 -1 -26 7 11 14 9 36 -13 22 -22 25 -32
20 -54 -4 -15 -11 -43 -15 -62 -5 -19 -17 -69 -28 -110 -60 -218 -102 -390
-103 -428 -1 -21 -2 -23 -6 -7 -3 11 -9 22 -14 25 -7 5 -15 105 -9 120 7 18 7
39 0 35 -10 -6 -20 47 -15 77 3 13 7 37 11 53 6 31 81 294 114 400 70 227 84
265 97 265 7 0 13 -7 13 -15z m-366 -185 c4 -24 4 -42 1 -39 -6 7 -35 176 -34
199 1 16 22 -82 33 -160z m26 142 c0 -5 -3 -12 -7 -16 -4 -4 -7 -24 -6 -44 2
-36 1 -36 -7 -7 -13 49 -11 75 5 75 8 0 15 -4 15 -8z m70 -103 c-18 -129 -28
-145 -28 -44 1 68 3 80 8 50 l7 -40 2 35 c1 39 11 83 17 77 3 -2 0 -37 -6 -78z
m121 38 c-8 -8 -11 -5 -11 9 0 27 14 41 18 19 2 -9 -1 -22 -7 -28z m20 -70
c-10 -9 -11 -8 -5 6 3 10 9 15 12 12 3 -3 0 -11 -7 -18z m-197 -18 c3 -17 6
-41 5 -53 0 -20 0 -20 -8 -1 -16 38 -23 85 -13 85 5 0 12 -14 16 -31z m-1157
-36 c-3 -10 -5 -4 -5 12 0 17 2 24 5 18 2 -7 2 -21 0 -30z m1320 15 c-3 -8 -6
-5 -6 6 -1 11 2 17 5 13 3 -3 4 -12 1 -19z m-1361 -64 c-8 -21 -26 -17 -26 7
0 11 5 17 10 14 6 -3 11 2 11 12 1 17 1 17 6 0 3 -10 2 -25 -1 -33z m74 -78
c0 -6 -7 -1 -15 10 -8 10 -14 37 -14 59 l0 40 14 -50 c8 -27 14 -54 15 -59z
m1127 52 c-3 -7 -5 -2 -5 12 0 14 2 19 5 13 2 -7 2 -19 0 -25z m-1587 -5 c0
-12 -3 -13 -13 -4 -8 6 -18 7 -23 3 -4 -4 -2 1 5 10 15 20 31 15 31 -9z m237
-25 c-3 -7 -5 -2 -5 12 0 14 2 19 5 13 2 -7 2 -19 0 -25z m930 10 c-3 -8 -6
-5 -6 6 -1 11 2 17 5 13 3 -3 4 -12 1 -19z m51 -70 c1 -51 -3 -127 -9 -168
-23 -162 -42 -266 -51 -277 -5 -7 -8 -16 -5 -20 2 -4 0 -17 -4 -28 -9 -18 -9
-18 -5 3 5 26 -2 28 -20 5 -12 -16 -13 -16 -14 -2 0 9 6 19 14 22 15 6 28 117
14 117 -5 0 -8 -15 -8 -32 0 -25 -3 -29 -10 -18 -7 12 -11 10 -19 -10 -9 -24
-10 -24 -11 10 -2 33 -2 34 -11 10 -7 -21 -8 -20 -4 9 3 19 13 40 23 47 14 11
15 15 3 23 -11 7 -11 15 0 47 7 22 17 45 22 51 5 7 6 33 3 57 -6 37 -4 48 13
65 25 25 27 41 6 41 -8 0 -12 6 -9 14 3 8 15 13 26 11 18 -4 19 -1 14 30 -4
22 -3 35 4 35 5 0 10 11 10 25 0 14 6 25 13 25 9 0 13 -25 15 -92z m-895 -6
c2 -34 0 -62 -5 -62 -4 0 -8 30 -8 67 0 82 8 79 13 -5z m-46 26 c-3 -8 -6 -5
-6 6 -1 11 2 17 5 13 3 -3 4 -12 1 -19z m893 -18 c0 -5 -2 -10 -4 -10 -3 0 -8
5 -11 10 -3 6 -1 10 4 10 6 0 11 -4 11 -10z m-1133 -32 c-3 -8 -6 -5 -6 6 -1
11 2 17 5 13 3 -3 4 -12 1 -19z m1850 -10 c-3 -8 -6 -5 -6 6 -1 11 2 17 5 13
3 -3 4 -12 1 -19z m-1650 -75 c-3 -10 -5 -2 -5 17 0 19 2 27 5 18 2 -10 2 -26
0 -35z m40 -10 c-3 -10 -5 -4 -5 12 0 17 2 24 5 18 2 -7 2 -21 0 -30z m48 3
c20 -101 9 -194 -14 -114 -6 23 -9 27 -10 12 -1 -12 -7 -24 -13 -27 -9 -3 -14
9 -16 39 -3 42 3 50 31 45 11 -2 9 37 -3 44 -15 9 -12 22 5 22 9 0 17 -10 20
-21z m-88 -103 c-2 -16 -4 -5 -4 22 0 28 2 40 4 28 2 -13 2 -35 0 -50z m0
-115 c-3 -8 -6 -5 -6 6 -1 11 2 17 5 13 3 -3 4 -12 1 -19z m74 -32 c5 3 18 2
30 -1 18 -6 19 -12 13 -52 -5 -35 -3 -49 8 -57 8 -6 18 -20 22 -31 14 -37 36
-186 30 -197 -4 -7 -2 -8 4 -4 8 5 12 0 12 -13 0 -12 11 -64 25 -117 14 -53
25 -103 25 -111 0 -32 -20 2 -44 75 -14 42 -43 129 -66 192 -37 106 -55 209
-30 170 8 -12 10 -11 10 8 0 12 -4 22 -9 22 -5 0 -12 12 -14 28 -4 24 -4 23
-7 -8 l-2 -35 -9 40 c-10 44 -20 130 -12 102 2 -9 9 -15 14 -11z m-46 -64 c-5
-27 -5 -27 5 -3 13 29 15 27 24 -19 4 -27 3 -31 -5 -20 -8 12 -9 9 -3 -10 4
-14 10 -79 15 -145 4 -66 11 -133 15 -150 4 -16 4 -27 0 -24 -10 9 -56 224
-67 313 -6 44 -7 92 -3 106 l6 25 9 -23 c5 -13 7 -36 4 -50z m162 26 c-3 -8
-6 -5 -6 6 -1 11 2 17 5 13 3 -3 4 -12 1 -19z m198 -89 c129 -88 145 -102 151
-135 3 -18 4 -36 1 -41 -3 -5 -2 -33 3 -63 l8 -55 2 55 c2 30 4 63 4 72 2 19
26 49 26 31 0 -6 17 -22 39 -36 21 -14 60 -46 87 -71 35 -33 54 -44 67 -40 12
4 17 2 13 -4 -3 -5 1 -23 9 -38 l14 -28 10 25 c8 20 10 21 10 4 0 -11 -4 -29
-9 -40 -7 -18 -9 -17 -22 12 -13 30 -16 32 -34 18 -27 -18 -29 -68 -3 -90 18
-17 19 -17 29 6 8 19 10 13 6 -30 -6 -55 -30 -106 -46 -96 -6 4 -10 -1 -10
-10 0 -12 5 -15 16 -11 13 5 14 3 7 -6 -6 -7 -20 -46 -32 -85 -13 -40 -27 -75
-32 -78 -5 -4 -9 -15 -9 -26 0 -10 -5 -19 -11 -19 -7 0 -9 12 -4 36 5 27 3 34
-6 29 -7 -5 -10 -24 -6 -56 4 -29 2 -49 -3 -49 -6 0 -10 -7 -10 -16 0 -17 -39
-87 -51 -92 -4 -2 -5 -13 -3 -25 4 -21 4 -21 -5 -2 -8 19 9 81 27 95 13 10 32
50 32 67 -1 16 -2 16 -15 -1 -8 -11 -15 -28 -15 -38 0 -10 -4 -18 -10 -18 -5
0 -10 -6 -10 -13 0 -7 -7 -23 -16 -36 l-16 -23 -18 39 c-14 33 -17 60 -13 159
3 85 1 115 -6 104 -6 -8 -11 -41 -11 -72 0 -57 -13 -77 -25 -38 -10 31 -22 24
-17 -10 2 -16 8 -27 13 -24 5 3 6 -2 3 -10 -3 -9 -7 -16 -9 -16 -1 0 -13 28
-26 63 -12 34 -40 99 -61 144 -21 47 -35 90 -32 100 5 15 4 16 -5 3 -9 -13
-11 -12 -12 5 -1 11 -1 29 -1 40 2 15 0 16 -7 7 -7 -11 -9 -11 -13 0 -3 8 0
22 8 33 13 18 14 18 14 0 0 -10 3 -16 6 -12 4 3 4 14 0 23 -6 15 -8 15 -26 -1
-11 -10 -20 -14 -21 -9 -2 33 -11 58 -25 71 -8 8 -14 27 -13 42 4 46 -1 72
-11 66 -6 -3 -10 5 -10 19 0 19 4 24 16 19 12 -4 15 -2 12 8 -3 8 -11 13 -17
12 -6 -2 -11 9 -11 25 0 21 2 24 10 12 6 -9 10 -10 10 -3 0 6 -4 15 -10 18
-14 8 -13 68 1 82 6 6 18 9 25 6 8 -3 14 1 14 11 0 9 -7 16 -16 16 -10 0 -14
6 -10 15 3 8 1 15 -5 15 -6 0 -7 5 -4 10 4 6 -7 16 -24 23 -17 7 -29 16 -25
19 6 7 92 -41 169 -93z m1165 41 c0 -5 -5 -10 -11 -10 -5 0 -7 5 -4 10 3 6 8
10 11 10 2 0 4 -4 4 -10z m17 -32 c-3 -8 -6 -5 -6 6 -1 11 2 17 5 13 3 -3 4
-12 1 -19z m-17 2 c0 -5 -4 -10 -10 -10 -5 0 -10 5 -10 10 0 6 5 10 10 10 6 0
10 -4 10 -10z m-689 -67 c-6 -10 -11 -12 -11 -5 0 6 -7 12 -16 12 -8 0 -13 4
-9 10 3 5 12 7 20 3 10 -3 15 1 16 13 1 17 2 17 6 2 2 -10 0 -25 -6 -35z m30
-9 l-9 -39 -1 36 c-1 20 2 39 6 42 12 13 13 0 4 -39z m636 24 c-3 -8 -6 -5 -6
6 -1 11 2 17 5 13 3 -3 4 -12 1 -19z m-70 -40 c-3 -7 -5 -2 -5 12 0 14 2 19 5
13 2 -7 2 -19 0 -25z m-257 -32 c0 -41 -13 -24 -17 22 -2 27 -1 33 7 22 5 -8
10 -28 10 -44z m50 19 c4 3 6 -5 2 -17 -5 -21 -6 -21 -13 -2 -4 10 -8 24 -8
29 1 6 3 4 6 -3 2 -6 8 -10 13 -7z m-373 -52 c-3 -10 -5 -4 -5 12 0 17 2 24 5
18 2 -7 2 -21 0 -30z m-17 11 c0 -8 -5 -12 -10 -9 -6 4 -8 11 -5 16 9 14 15
11 15 -7z m-719 -139 c30 -66 61 -156 57 -161 -8 -7 -103 76 -110 96 -5 15 -4
19 4 14 8 -5 9 -1 4 12 -4 10 -10 53 -12 94 l-5 75 18 -35 c9 -19 29 -62 44
-95z m1048 45 c5 0 9 6 8 13 -1 30 4 47 13 47 6 0 8 -22 5 -57 -3 -32 -2 -52
1 -45 12 25 23 11 17 -25 -18 -131 -131 -531 -159 -564 -8 -8 -14 -20 -14 -24
0 -26 -147 -316 -201 -398 -22 -32 -39 -63 -39 -68 0 -5 -4 -9 -8 -9 -5 0 -19
-19 -32 -42 -13 -24 -30 -49 -37 -56 -7 -7 -25 -33 -39 -58 -14 -24 -29 -44
-32 -44 -4 0 -18 -17 -32 -38 -40 -61 -136 -184 -171 -222 -45 -47 -199 -183
-233 -205 -14 -10 -29 -15 -33 -12 -7 8 118 131 158 154 16 9 29 23 29 30 0
20 67 86 79 79 7 -5 8 -1 4 10 -5 14 -3 16 11 11 14 -6 16 -3 10 15 -6 21 -5
21 10 9 16 -13 17 -12 12 15 -4 16 -3 23 0 17 10 -21 27 -15 21 8 -4 16 -3 18
9 8 11 -9 14 -8 14 5 0 9 -5 16 -11 16 -5 0 -8 4 -4 10 3 5 13 7 23 4 13 -5
14 -4 3 4 -7 5 -10 15 -6 21 5 9 11 9 23 -1 14 -11 15 -10 9 5 -9 25 2 44 15
26 6 -10 7 -7 3 9 -7 23 9 31 19 10 4 -7 4 -3 2 9 -2 13 0 26 5 29 5 3 9 0 9
-7 0 -8 4 -8 16 2 9 8 13 21 10 35 -6 24 9 43 17 22 2 -7 3 -5 1 6 -3 21 15
66 28 66 11 0 10 -17 -2 -25 -5 -3 -9 -14 -9 -23 1 -15 2 -15 6 0 2 10 9 18
15 18 6 0 8 10 4 26 -5 17 0 34 14 55 12 16 17 29 11 29 -6 0 -17 -13 -26 -30
-17 -34 -58 -96 -81 -125 -9 -11 -27 -37 -41 -57 -14 -21 -29 -38 -34 -38 -5
0 10 28 33 63 111 167 133 206 243 427 56 113 110 232 120 265 11 33 26 71 35
85 8 13 31 89 51 170 20 80 54 208 75 285 35 124 39 135 42 98 2 -24 7 -43 11
-43z m318 38 c-3 -7 -5 -2 -5 12 0 14 2 19 5 13 2 -7 2 -19 0 -25z m-1252
-120 c17 -40 68 -154 113 -253 44 -99 90 -211 101 -250 18 -63 19 -76 8 -125
-7 -30 -17 -54 -22 -53 -6 2 -13 43 -16 92 -6 76 -13 103 -51 188 -25 54 -63
126 -85 160 -29 44 -46 86 -58 140 -19 84 -34 186 -27 179 2 -3 19 -38 37 -78z
m1099 47 c-4 -8 -8 -15 -10 -15 -2 0 -4 7 -4 15 0 8 4 15 10 15 5 0 7 -7 4
-15z m76 -32 c0 -39 -16 -25 -17 14 -1 24 2 32 8 22 5 -8 9 -24 9 -36z m-63
-75 c-3 -8 -6 -5 -6 6 -1 11 2 17 5 13 3 -3 4 -12 1 -19z m100 -25 c0 -24 4
-37 11 -35 7 1 12 -5 12 -13 0 -8 4 -23 10 -33 20 -36 100 -214 100 -222 0 -5
6 -15 13 -22 13 -15 37 -55 37 -63 0 -16 -21 1 -46 38 -16 23 -32 45 -37 48
-4 3 -5 12 -2 20 2 8 -2 25 -10 39 -12 22 -35 67 -90 181 -7 15 -10 38 -8 53
4 20 1 26 -11 26 -10 0 -14 5 -11 10 15 24 32 9 32 -27z m-1296 -65 c16 -29 2
-21 -22 15 -17 23 -18 28 -6 18 10 -8 23 -23 28 -33z m1516 -10 c-3 -7 -5 -2
-5 12 0 14 2 19 5 13 2 -7 2 -19 0 -25z m0 -50 c-3 -8 -6 -5 -6 6 -1 11 2 17
5 13 3 -3 4 -12 1 -19z m-20 -50 c-3 -8 -6 -5 -6 6 -1 11 2 17 5 13 3 -3 4
-12 1 -19z m-300 -25 c-3 -10 -5 -4 -5 12 0 17 2 24 5 18 2 -7 2 -21 0 -30z
m163 -33 c0 -5 -2 -10 -4 -10 -3 0 -8 5 -11 10 -3 6 -1 10 4 10 6 0 11 -4 11
-10z m-173 -32 c-3 -8 -6 -5 -6 6 -1 11 2 17 5 13 3 -3 4 -12 1 -19z m300 -45
c-2 -16 -4 -5 -4 22 0 28 2 40 4 28 2 -13 2 -35 0 -50z m-135 5 c24 -29 58
-67 76 -85 24 -23 32 -40 29 -55 l-4 -23 -8 22 c-13 40 -54 37 -55 -4 0 -20
-88 -325 -105 -366 -8 -20 -12 -37 -9 -37 4 0 -1 -9 -11 -20 -10 -11 -18 -34
-18 -51 0 -19 -3 -25 -9 -17 -5 8 -8 1 -8 -19 0 -18 -4 -33 -9 -33 -5 0 -8
-24 -7 -54 1 -44 -2 -56 -15 -59 -13 -4 -16 -14 -13 -51 2 -25 -1 -46 -6 -46
-6 0 -10 -5 -10 -11 0 -19 -90 -152 -149 -219 -62 -71 -147 -154 -183 -178
-13 -8 -35 -26 -50 -40 -14 -13 -31 -21 -37 -18 -6 4 -11 3 -11 -2 0 -10 -101
-92 -113 -92 -4 0 25 31 62 69 83 83 113 123 166 212 84 143 158 261 179 287
13 15 37 65 53 112 17 47 45 123 63 170 32 85 73 231 91 325 42 220 50 265 49
282 -4 33 0 53 9 53 6 0 29 -23 53 -52z m-1225 -20 c6 -7 15 -28 21 -46 10
-30 9 -33 -18 -47 -38 -20 -53 -19 -74 4 -22 25 -13 62 22 84 33 20 37 20 49
5z m654 -81 c-10 -9 -11 -8 -5 6 3 10 9 15 12 12 3 -3 0 -11 -7 -18z m92 -440
c6 -18 -38 -149 -47 -140 -4 4 -5 -6 -2 -22 3 -16 0 -38 -7 -50 -22 -35 -36
-98 -34 -152 2 -28 -1 -49 -5 -47 -4 3 -8 13 -9 22 0 9 -9 -1 -20 -23 l-19
-40 3 33 c4 39 0 41 -13 6 -7 -18 -6 -33 5 -55 16 -29 35 -31 35 -4 0 8 6 18
13 22 19 11 90 118 117 176 13 26 25 46 27 43 2 -2 -15 -42 -38 -87 -60 -120
-206 -333 -280 -409 -35 -36 -76 -78 -90 -95 -23 -27 -115 -104 -173 -145 -12
-8 14 23 58 70 101 108 213 267 265 375 46 95 116 301 152 446 19 79 26 95 41
91 9 -2 18 -9 21 -15z m-103 -149 c-55 -192 -58 -198 -86 -198 -12 0 -25 -4
-28 -9 -3 -5 -18 -12 -33 -16 -15 -3 -32 -12 -37 -19 -6 -8 -30 -18 -53 -24
l-42 -10 42 52 c23 28 58 70 78 94 20 23 72 98 115 167 43 69 80 121 82 115 2
-5 -15 -74 -38 -152z m160 -55 c-11 -17 -11 -17 -6 0 3 10 7 26 7 35 1 15 2
15 6 0 2 -10 -1 -25 -7 -35z m-849 -29 c-11 -15 -21 -32 -21 -38 0 -6 -13 -27
-28 -46 -16 -19 -38 -51 -50 -71 -25 -42 -67 -71 -178 -127 -133 -66 -324
-132 -324 -111 0 5 5 9 10 9 33 0 347 199 403 255 22 22 41 34 48 29 7 -4 9
-3 6 3 -4 5 6 16 20 24 15 8 49 36 75 63 51 50 76 57 39 10z m1402 6 c-2 -9
-23 -36 -45 -61 -22 -24 -51 -57 -65 -73 -13 -16 -26 -26 -29 -23 -6 5 94 140
107 145 5 2 9 9 9 16 0 7 6 13 14 13 7 0 11 -7 9 -17z m-885 -25 c-6 -14 -15
-25 -19 -25 -4 0 -18 -18 -30 -40 -12 -21 -29 -42 -37 -45 -9 -3 -5 7 10 27
13 18 37 50 52 71 33 43 40 47 24 12z m-469 8 c-4 -22 2 -33 14 -27 6 4 2 -4
-10 -17 -12 -13 -36 -33 -54 -43 l-33 -19 23 31 c12 17 27 31 33 29 6 -1 13 4
16 12 3 9 0 11 -8 6 -9 -6 -9 -3 -1 14 12 21 22 28 20 14z m367 -40 c-10 -10
-19 5 -10 18 6 11 8 11 12 0 2 -7 1 -15 -2 -18z m-7 -110 c-38 -49 -69 -83
-69 -74 0 6 17 28 37 51 38 41 56 54 32 23z m-169 -6 c0 -2 -10 -12 -21 -23
-22 -19 -22 -19 -8 4 12 19 29 30 29 19z m1010 -7 c0 -5 -5 -10 -11 -10 -5 0
-7 5 -4 10 3 6 8 10 11 10 2 0 4 -4 4 -10z m-1097 -18 c-7 -4 -11 -16 -11 -27
3 -29 -33 -80 -43 -63 -7 10 -9 9 -9 -5 0 -9 -9 -25 -20 -34 -11 -10 -20 -23
-20 -30 0 -7 -10 -13 -22 -13 -17 0 -19 -3 -10 -12 16 -16 15 -28 0 -28 -21 0
-35 -14 -42 -40 -3 -14 -3 -19 0 -12 3 6 10 12 16 12 6 0 5 -6 -2 -15 -9 -11
-16 -13 -24 -5 -19 19 -43 11 -43 -15 0 -21 3 -25 21 -20 19 5 19 5 3 -5 -9
-6 -29 -22 -44 -36 -14 -13 -49 -39 -77 -58 -74 -49 -325 -172 -366 -180 l-35
-7 30 17 c17 9 39 24 49 33 11 9 16 10 12 4 -5 -9 -2 -11 8 -7 12 5 13 10 5
26 -6 12 -7 18 -1 14 11 -7 82 57 82 74 0 7 7 9 16 6 10 -4 18 0 21 13 3 11
14 22 25 24 11 3 17 10 14 16 -4 6 13 20 36 32 24 12 45 25 48 29 3 4 25 20
50 35 25 16 65 47 90 71 25 23 66 59 93 79 26 20 47 41 47 48 0 7 10 18 21 26
19 11 21 11 16 -2 -4 -11 0 -13 13 -10 10 3 21 17 25 31 8 31 25 55 34 47 3
-3 0 -9 -6 -13z m8 -80 c-16 -30 -101 -118 -101 -104 0 6 5 12 11 12 6 0 9 6
6 14 -4 9 3 16 19 20 13 4 24 12 24 18 0 11 38 58 47 58 2 0 -1 -8 -6 -18z
m194 8 c3 -5 1 -10 -4 -10 -6 0 -11 5 -11 10 0 6 2 10 4 10 3 0 8 -4 11 -10z
m-30 -58 c-15 -16 -16 -15 -4 12 7 15 15 23 17 16 3 -7 -3 -19 -13 -28z m184
-64 c-17 -31 -81 -128 -85 -128 -8 0 12 38 36 70 15 19 32 45 39 58 6 12 14
22 17 22 2 0 -1 -10 -7 -22z m-729 -63 c-7 -9 -15 -13 -19 -10 -3 3 1 10 9 15
21 14 24 12 10 -5z m588 -32 c-19 -44 -66 -111 -90 -127 -12 -9 -19 -18 -15
-22 3 -4 34 13 69 36 l63 43 -35 -39 c-19 -21 -48 -53 -65 -70 -16 -18 -45
-49 -64 -69 -42 -45 -79 -70 -89 -60 -4 4 -1 10 6 12 20 7 14 20 -13 27 -14 4
-25 11 -25 16 0 6 -11 20 -25 32 -14 12 -25 27 -25 34 0 7 41 47 90 89 97 83
115 88 46 13 -31 -34 -39 -49 -29 -52 20 -8 125 66 170 119 20 25 38 45 40 45
1 0 -3 -12 -9 -27z m-678 -48 c-7 -8 -18 -15 -24 -15 -6 0 -2 7 8 15 25 19 32
19 16 0z m670 -18 c0 -2 -12 -14 -27 -28 l-28 -24 24 28 c23 25 31 32 31 24z
m-856 -32 c-4 -8 -11 -15 -16 -15 -6 0 -5 6 2 15 7 8 14 15 16 15 2 0 1 -7 -2
-15z m136 -20 c0 -5 -5 -3 -10 5 -9 13 -11 13 -20 0 -5 -8 -10 -10 -10 -4 0 5
5 15 12 22 9 9 14 9 20 -1 4 -6 8 -16 8 -22z m177 -51 c2 -6 -3 -11 -12 -11
-8 0 -15 7 -15 15 0 15 22 12 27 -4z m1413 -25 c0 -6 -4 -7 -10 -4 -5 3 -10 0
-10 -7 0 -7 -10 -19 -22 -27 -22 -13 -22 -13 -7 10 9 13 19 30 23 37 8 13 26
7 26 -9z m-1536 -45 c9 -3 13 -10 10 -15 -8 -14 -21 -11 -28 6 -6 17 -4 18 18
9z m-44 -29 c0 -1 -11 -5 -25 -7 -20 -4 -23 -2 -14 8 8 10 39 10 39 -1z"/>
<path d="M4441 3558 c0 -16 -5 -28 -11 -28 -5 0 -10 -8 -10 -17 0 -14 3 -13
16 5 8 12 13 32 11 45 -4 19 -4 18 -6 -5z"/>
<path d="M4301 3004 c0 -11 3 -14 6 -6 3 7 2 16 -1 19 -3 4 -6 -2 -5 -13z"/>
<path d="M4271 2874 c0 -11 3 -14 6 -6 3 7 2 16 -1 19 -3 4 -6 -2 -5 -13z"/>
<path d="M4090 2689 c0 -2 -4 -19 -9 -37 -5 -17 -6 -32 -1 -32 10 0 24 59 16
67 -3 4 -6 4 -6 2z"/>
<path d="M4061 2554 c0 -11 3 -14 6 -6 3 7 2 16 -1 19 -3 4 -6 -2 -5 -13z"/>
<path d="M4140 2456 c0 -11 28 -76 33 -76 6 0 -17 68 -26 76 -4 4 -7 4 -7 0z"/>
<path d="M3952 2575 c0 -16 2 -22 5 -12 2 9 2 23 0 30 -3 6 -5 -1 -5 -18z"/>
<path d="M3655 1879 c-4 -6 -5 -12 -2 -15 2 -3 7 2 10 11 7 17 1 20 -8 4z"/>
<path d="M3611 1744 c0 -11 3 -14 6 -6 3 7 2 16 -1 19 -3 4 -6 -2 -5 -13z"/>
<path d="M3517 1533 c-4 -3 -7 -11 -7 -17 0 -6 5 -5 12 2 6 6 9 14 7 17 -3 3
-9 2 -12 -2z"/>
<path d="M3481 1469 c-11 -19 -11 -21 4 -15 9 3 19 6 21 6 2 0 4 7 4 15 0 21
-13 19 -29 -6z"/>
<path d="M3443 1395 c-6 -14 -9 -25 -6 -25 7 0 32 33 33 43 0 16 -16 5 -27
-18z"/>
<path d="M3406 1324 c-9 -35 -2 -40 12 -9 6 13 7 27 3 30 -5 2 -12 -7 -15 -21z"/>
<path d="M4471 3285 c1 -19 18 -51 18 -35 0 8 -4 22 -9 30 -5 8 -9 11 -9 5z"/>
<path d="M4457 3248 c-3 -9 -4 -43 -2 -75 3 -32 1 -48 -3 -35 -7 21 -8 21 -18
4 -10 -15 -8 -21 7 -30 21 -13 24 -6 32 73 5 47 -6 89 -16 63z"/>
<path d="M4375 2978 c-7 -39 8 -92 18 -65 4 10 2 17 -4 17 -7 0 -8 14 -4 40 8
48 -1 55 -10 8z"/>
<path d="M3790 2954 c0 -8 5 -12 10 -9 6 3 10 10 10 16 0 5 -4 9 -10 9 -5 0
-10 -7 -10 -16z"/>
<path d="M3760 2879 c0 -5 5 -7 10 -4 6 3 10 8 10 11 0 2 -4 4 -10 4 -5 0 -10
-5 -10 -11z"/>
<path d="M2941 2554 c0 -11 3 -14 6 -6 3 7 2 16 -1 19 -3 4 -6 -2 -5 -13z"/>
<path d="M3433 2220 c0 -25 2 -35 4 -22 2 12 2 32 0 45 -2 12 -4 2 -4 -23z"/>
<path d="M3126 2241 c-4 -7 -5 -15 -2 -18 9 -9 19 4 14 18 -4 11 -6 11 -12 0z"/>
<path d="M3411 2204 c0 -11 3 -14 6 -6 3 7 2 16 -1 19 -3 4 -6 -2 -5 -13z"/>
<path d="M3500 2200 c0 -5 5 -10 11 -10 5 0 7 5 4 10 -3 6 -8 10 -11 10 -2 0
-4 -4 -4 -10z"/>
<path d="M3157 2169 c7 -7 15 -10 18 -7 3 3 -2 9 -12 12 -14 6 -15 5 -6 -5z"/>
<path d="M3561 1894 c0 -11 3 -14 6 -6 3 7 2 16 -1 19 -3 4 -6 -2 -5 -13z"/>
<path d="M3282 1845 c0 -16 2 -22 5 -12 2 9 2 23 0 30 -3 6 -5 -1 -5 -18z"/>
<path d="M3537 1763 c-4 -3 -7 -13 -7 -22 1 -13 3 -13 11 2 11 19 8 33 -4 20z"/>
<path d="M3791 1404 c0 -11 3 -14 6 -6 3 7 2 16 -1 19 -3 4 -6 -2 -5 -13z"/>
<path d="M3745 1330 c-3 -5 -1 -10 4 -10 6 0 11 5 11 10 0 6 -2 10 -4 10 -3 0
-8 -4 -11 -10z"/>
<path d="M3646 1203 c-6 -14 -5 -15 5 -6 7 7 10 15 7 18 -3 3 -9 -2 -12 -12z"/>
<path d="M3611 1094 c0 -11 3 -14 6 -6 3 7 2 16 -1 19 -3 4 -6 -2 -5 -13z"/>
<path d="M3185 550 c3 -5 8 -10 11 -10 2 0 4 5 4 10 0 6 -5 10 -11 10 -5 0 -7
-4 -4 -10z"/>
<path d="M3712 745 c-1 -11 -4 -32 -8 -47 -7 -32 6 -37 22 -10 9 13 8 25 -1
47 -10 23 -13 25 -13 10z"/>
<path d="M3310 340 c0 -5 7 -7 15 -4 8 4 15 8 15 10 0 2 -7 4 -15 4 -8 0 -15
-4 -15 -10z"/>
<path d="M1454 4379 c-55 -28 -106 -57 -115 -65 -8 -8 -19 -14 -23 -14 -20 0
-300 -200 -292 -208 3 -3 32 15 63 40 52 40 169 118 264 176 20 12 79 44 130
72 52 27 89 50 83 50 -6 0 -56 -23 -110 -51z"/>
<path d="M3041 4401 c-8 -5 -9 -11 -3 -15 5 -3 15 1 22 9 14 16 3 20 -19 6z"/>
<path d="M2955 4382 c-71 -31 -185 -96 -264 -152 -99 -70 -159 -120 -144 -120
6 0 31 15 55 33 204 153 398 258 412 224 2 -7 5 -2 5 11 1 26 -10 27 -64 4z"/>
<path d="M1180 4380 c-9 -6 -10 -10 -3 -10 6 0 15 5 18 10 8 12 4 12 -15 0z"/>
<path d="M1614 4285 c-10 -8 -14 -14 -9 -14 6 0 19 6 29 14 11 8 15 15 10 15
-6 0 -19 -7 -30 -15z"/>
<path d="M2103 4282 c-17 -8 -34 -23 -36 -34 -5 -16 -2 -16 23 4 15 13 36 28
46 35 26 16 6 14 -33 -5z"/>
<path d="M2933 4258 c-16 -18 -40 -45 -55 -60 -14 -15 -24 -28 -21 -28 3 0 0
-7 -7 -15 -7 -8 -15 -13 -19 -10 -4 2 -24 -14 -46 -36 -28 -29 -41 -36 -46
-27 -5 8 -8 6 -7 -9 2 -20 3 -20 28 -5 24 15 23 14 -5 -18 -56 -64 -53 -61
-59 -47 -3 6 -3 1 0 -12 5 -20 3 -23 -11 -18 -9 4 -18 7 -21 7 -2 0 0 7 3 17
4 11 3 14 -5 9 -7 -4 -12 -19 -11 -34 0 -15 3 -21 6 -14 7 17 23 15 23 -3 0
-8 -4 -15 -9 -15 -5 0 -13 -9 -16 -20 -10 -31 -28 -24 -21 8 6 26 6 26 -9 8
-8 -11 -15 -27 -15 -35 0 -18 -125 -143 -134 -134 -3 4 -6 0 -6 -8 -1 -17 -70
-97 -70 -81 0 6 14 26 30 44 17 18 33 43 36 55 4 13 10 21 14 18 5 -3 3 11 -2
30 -14 45 -20 42 -144 -92 -193 -207 -390 -448 -374 -458 6 -3 10 -2 10 4 0 6
20 32 45 58 24 26 45 51 45 56 0 4 12 7 28 7 19 0 23 3 13 9 -21 14 -4 33 19
21 16 -9 18 -7 15 11 -3 15 0 19 11 15 11 -4 12 -2 5 13 -9 15 -7 17 14 14 16
-4 27 1 34 16 7 12 17 21 24 21 6 0 -5 -17 -25 -37 -21 -21 -49 -53 -64 -71
-14 -17 -31 -29 -36 -25 -6 3 -8 2 -5 -4 3 -5 -15 -29 -40 -54 -64 -61 -175
-195 -207 -249 -47 -81 -50 -83 -111 -84 -55 -1 -56 0 -50 24 3 14 28 62 56
106 27 45 49 86 49 92 0 6 9 17 20 25 34 24 86 99 105 152 10 28 29 61 42 75
29 30 63 78 97 140 25 45 51 76 153 183 59 61 54 78 -7 25 -20 -18 -51 -44
-69 -58 -62 -48 -104 -92 -279 -290 -56 -64 -193 -246 -228 -303 -16 -27 -36
-59 -44 -71 -8 -12 -24 -36 -35 -54 -11 -17 -28 -32 -39 -32 -14 0 -16 3 -7
13 6 8 8 17 4 20 -3 4 -2 7 3 7 16 0 45 57 38 74 -5 12 -2 15 11 9 15 -5 17
-2 13 15 -4 12 -2 20 3 17 4 -3 16 11 26 32 9 21 19 42 21 47 3 5 0 6 -7 2 -7
-5 -9 -1 -4 9 5 13 7 14 14 3 8 -12 10 -9 13 17 1 10 49 78 74 103 14 16 16
26 2 17 -15 -9 -12 11 4 24 11 9 15 9 20 -1 3 -7 4 -4 1 8 -3 13 2 27 15 39
11 10 20 14 20 10 0 -5 14 13 31 41 17 27 46 65 63 85 17 20 54 62 81 94 28
32 80 90 118 129 73 76 91 110 28 53 -125 -113 -381 -417 -441 -523 -19 -33
-44 -69 -56 -82 -12 -12 -43 -60 -68 -105 -25 -45 -64 -104 -85 -132 -22 -27
-54 -75 -72 -105 -17 -30 -52 -84 -77 -120 -25 -36 -55 -87 -68 -115 -13 -27
-33 -66 -44 -85 -11 -19 -48 -105 -81 -190 -35 -90 -57 -138 -54 -115 3 22 10
51 14 65 5 14 14 45 21 70 7 25 21 71 32 102 10 32 18 62 18 67 0 5 5 22 11
38 6 15 13 51 15 80 2 35 17 80 44 138 22 47 48 107 56 133 9 26 19 49 23 52
4 3 22 37 41 75 18 39 36 75 39 80 2 6 -2 4 -11 -3 -9 -7 -31 -43 -49 -80 -17
-37 -35 -69 -39 -72 -4 -3 -24 -36 -45 -75 -21 -38 -43 -77 -50 -85 -28 -36
-126 -254 -158 -350 -71 -212 -107 -399 -113 -575 -3 -105 -2 -114 8 -70 6 28
16 53 23 57 7 4 16 24 20 44 3 20 9 33 12 30 3 -3 0 -32 -6 -65 -7 -33 -14
-75 -17 -93 -9 -61 -4 -345 7 -394 6 -27 16 -94 23 -150 10 -79 18 -106 35
-123 11 -11 21 -33 21 -48 0 -55 12 -12 15 57 3 40 6 75 8 77 2 2 7 -92 11
-207 5 -156 4 -225 -6 -266 -7 -29 -15 -54 -18 -54 -3 0 -16 30 -30 66 -14 37
-33 76 -42 87 -26 29 -22 15 16 -61 18 -37 39 -85 46 -106 15 -47 22 -38 45
59 14 62 15 88 4 227 -10 125 -10 175 1 250 17 128 32 155 26 48 -3 -49 -2
-74 3 -60 7 20 9 14 15 -35 12 -109 26 -165 42 -165 16 0 53 72 54 105 1 18 2
18 10 3 33 -55 39 -181 14 -288 -30 -129 -44 -226 -42 -300 l1 -75 7 95 c4 52
17 140 29 195 27 124 40 221 36 258 -4 29 4 34 25 15 19 -18 -55 116 -88 161
-16 20 -36 59 -46 86 -104 283 -111 359 -53 556 14 48 29 104 32 125 4 22 12
44 19 49 6 6 12 17 12 25 3 35 47 228 61 265 8 22 17 48 20 58 3 9 9 17 15 17
5 0 4 -10 -3 -21 -14 -27 -8 -185 8 -213 9 -16 11 -8 10 41 -1 124 121 303
206 303 l31 0 -36 -35 c-126 -123 -145 -422 -34 -540 36 -38 67 -44 127 -23
64 22 141 145 187 298 46 151 39 222 -29 289 -39 40 -127 91 -155 91 -11 0
-23 3 -26 6 -13 12 31 163 84 292 l30 72 59 0 c32 0 59 -2 59 -5 0 -3 -18 -39
-41 -80 -39 -71 -79 -168 -79 -190 0 -5 15 24 33 65 45 103 100 194 119 198 9
2 44 -10 79 -27 35 -17 65 -28 67 -26 5 4 -75 51 -112 65 -16 6 -26 16 -23 23
13 33 108 157 180 235 125 136 388 394 394 388 3 -3 -8 -27 -24 -53 -94 -155
-246 -489 -287 -632 -21 -71 -13 -78 9 -9 9 29 22 69 30 88 7 19 16 44 20 55
l7 20 9 -20 c8 -17 8 -16 4 6 -3 15 2 44 11 65 23 57 86 184 91 184 5 0 -4
-32 -20 -70 -6 -14 -9 -31 -8 -39 1 -7 -2 -10 -7 -7 -5 3 -12 -4 -16 -17 -8
-32 -7 -39 4 -32 6 3 10 2 10 -4 0 -5 -3 -11 -8 -13 -10 -4 -105 -307 -133
-423 -11 -49 -25 -106 -30 -125 -15 -61 -31 -204 -26 -230 3 -17 5 -11 6 17 3
95 106 532 131 557 13 13 12 3 -6 -69 -8 -36 -16 -127 -19 -225 l-4 -165 9
130 c10 146 9 143 45 315 25 123 34 154 61 217 8 17 14 36 14 42 0 6 5 11 10
11 13 0 13 -27 0 -32 -6 -2 -12 -21 -14 -43 -1 -21 -8 -41 -14 -43 -14 -4 -16
-32 -3 -32 16 0 30 26 33 57 1 18 6 29 10 27 4 -3 8 1 9 8 0 7 5 -2 10 -21 10
-32 11 -33 28 -15 10 11 16 25 14 31 -3 7 2 16 11 19 9 4 16 18 16 35 0 26 17
78 30 89 3 3 14 32 25 65 10 33 23 64 27 70 4 5 8 15 8 22 0 17 88 225 101
237 23 25 5 -34 -41 -127 -44 -92 -80 -208 -51 -167 8 11 11 12 11 2 0 -10 4
-10 16 2 33 33 87 32 83 -2 -3 -28 13 -82 22 -76 5 3 9 14 9 24 0 10 7 25 15
34 8 8 15 21 15 28 0 8 4 18 9 23 4 6 17 33 26 60 10 28 27 62 37 77 10 14 18
28 18 31 0 3 14 28 31 56 30 47 33 81 9 81 -8 0 -7 -7 0 -22 11 -22 10 -22 -4
-4 -9 11 -16 24 -16 28 0 5 -8 8 -17 6 -13 -2 -19 5 -21 22 -2 14 -12 33 -23
43 -17 16 -21 16 -43 1 -14 -8 -27 -15 -30 -15 -15 2 -16 0 -7 -17 11 -21 -20
-69 -38 -58 -6 4 -14 0 -17 -8 -10 -25 -26 -7 -19 21 4 16 2 22 -5 18 -13 -8
-13 -38 0 -51 14 -14 2 -44 -17 -44 -13 0 -13 3 -3 15 9 11 10 19 3 26 -6 6
-19 -4 -37 -31 -14 -22 -29 -40 -32 -40 -3 0 -2 5 2 11 3 6 -6 3 -22 -7 l-29
-19 33 46 c18 25 45 60 60 77 15 17 35 42 45 57 10 14 36 37 58 50 21 14 39
30 39 35 0 14 114 164 203 265 43 50 81 97 84 105 3 8 15 25 26 38 11 12 17
22 14 22 -4 0 -19 -14 -34 -32z m-473 -443 c-7 -8 -17 -15 -22 -15 -6 0 -5 7
2 15 7 8 17 15 22 15 6 0 5 -7 -2 -15z m-46 -85 c-6 -6 -10 -3 -10 10 0 13 4
16 10 10 7 -7 7 -13 0 -20z m-27 -40 c1 -11 -2 -20 -8 -20 -10 0 -12 23 -2 33
9 9 9 10 10 -13z m-34 -31 c-6 -6 -10 -17 -9 -23 2 -6 1 -8 -1 -3 -3 4 -9 4
-15 1 -5 -3 -4 3 4 15 7 12 17 21 22 21 6 0 5 -5 -1 -11z m152 -88 c-15 -30
-35 -42 -35 -21 0 6 4 10 9 10 5 0 14 14 22 32 7 17 15 26 17 20 2 -6 -4 -24
-13 -41z m-191 24 c-4 -8 -10 -15 -15 -15 -4 0 -6 7 -3 15 4 8 10 15 15 15 4
0 6 -7 3 -15z m-104 -59 c0 -2 -8 -10 -17 -17 -16 -13 -17 -12 -4 4 13 16 21
21 21 13z m90 -151 c-11 -22 -20 -33 -20 -26 0 14 32 72 37 68 1 -2 -6 -21
-17 -42z m307 -7 c-3 -7 -5 -2 -5 12 0 14 2 19 5 13 2 -7 2 -19 0 -25z m-936
-241 c-10 -9 -11 -8 -5 6 3 10 9 15 12 12 3 -3 0 -11 -7 -18z m-26 -15 c-3 -3
-11 0 -18 7 -9 10 -8 11 6 5 10 -3 15 -9 12 -12z m-30 -49 c-6 -36 -5 -37 10
-18 8 11 13 25 10 32 -3 10 0 11 15 3 19 -10 19 -12 -12 -45 -33 -37 -43 -43
-35 -22 2 6 0 20 -5 30 -5 10 -5 25 2 37 16 30 22 24 15 -17z m59 -47 c-3 -9
-13 -16 -22 -16 -13 0 -12 3 3 20 20 23 29 21 19 -4z m-99 -6 c3 -5 -1 -10
-10 -10 -9 0 -13 5 -10 10 3 6 8 10 10 10 2 0 7 -4 10 -10z m-67 -40 c-9 -6
-19 -24 -23 -40 -4 -17 -11 -30 -16 -30 -5 0 -9 -6 -9 -14 0 -8 -9 -24 -21
-37 l-20 -24 7 25 c3 14 13 35 21 48 8 13 16 36 18 50 2 15 4 28 4 30 1 1 13
2 29 2 22 -1 24 -2 10 -10z m142 5 c0 -2 -10 -28 -21 -57 -12 -29 -36 -96 -54
-148 -25 -72 -37 -95 -50 -95 -12 0 -19 -9 -20 -30 -2 -17 -1 -24 2 -17 7 19
23 14 23 -7 0 -13 -7 -18 -27 -18 -58 -1 -102 -11 -117 -25 -8 -9 -13 -18 -11
-20 3 -2 -16 -27 -41 -54 l-47 -49 49 90 c100 187 269 434 297 435 9 0 17 -2
17 -5z m-70 -9 c0 -2 -8 -10 -17 -17 -16 -13 -17 -12 -4 4 13 16 21 21 21 13z
m-15 -486 c8 -37 -3 -79 -16 -59 -12 19 -11 89 0 89 5 0 12 -13 16 -30z m-396
-115 c14 22 11 11 -12 -50 -8 -22 -27 -86 -42 -142 -15 -57 -32 -103 -37 -103
-5 0 -4 9 2 19 12 24 13 51 1 51 -5 0 -12 -19 -16 -41 -5 -28 -10 -37 -16 -28
-4 8 -3 19 3 26 6 7 8 29 4 50 -5 29 -4 35 4 23 9 -12 11 -9 7 13 -2 15 0 30
4 33 5 3 9 17 9 32 0 15 5 34 11 42 8 11 9 8 4 -14 -4 -18 -2 -32 5 -36 8 -5
7 -12 -4 -23 -12 -11 -14 -21 -7 -39 l10 -23 0 26 c1 14 4 29 8 33 4 4 8 21 9
38 1 17 7 34 14 38 9 5 11 22 7 48 -5 45 5 68 13 30 6 -23 6 -23 19 -3z m-39
-50 c0 -17 -2 -17 -10 -5 -5 8 -10 24 -10 35 0 17 2 17 10 5 5 -8 10 -24 10
-35z m604 -1 c21 -8 20 -33 -1 -56 -22 -25 -32 -23 -44 9 -8 22 -7 30 7 40 21
15 18 15 38 7z m-79 -74 c-3 -5 -11 -10 -16 -10 -6 0 -7 5 -4 10 3 6 11 10 16
10 6 0 7 -4 4 -10z m-165 -153 c14 -20 33 -40 43 -43 30 -10 85 5 107 28 33
36 36 10 6 -47 -47 -91 -132 -113 -192 -50 -36 38 -64 117 -45 123 6 2 11 18
11 35 0 24 3 28 10 17 8 -12 10 -12 10 5 1 17 2 17 13 -5 7 -14 23 -42 37 -63z
m-450 20 c0 -5 -4 -5 -10 -2 -5 3 -10 14 -10 23 0 15 2 15 10 2 5 -8 10 -19
10 -23z m0 -38 c0 -6 -4 -7 -10 -4 -5 3 -10 11 -10 16 0 6 5 7 10 4 6 -3 10
-11 10 -16z m-73 -31 c-3 -8 -6 -5 -6 6 -1 11 2 17 5 13 3 -3 4 -12 1 -19z
m110 0 c-3 -8 -6 -5 -6 6 -1 11 2 17 5 13 3 -3 4 -12 1 -19z m-49 -53 c-3 -3
-9 2 -12 12 -6 14 -5 15 5 6 7 -7 10 -15 7 -18z m-61 -87 c-2 -13 -4 -5 -4 17
-1 22 1 32 4 23 2 -10 2 -28 0 -40z m80 -300 c-3 -8 -6 -5 -6 6 -1 11 2 17 5
13 3 -3 4 -12 1 -19z m28 -193 c-8 -33 -14 -73 -15 -89 0 -22 -3 -27 -11 -19
-8 8 -6 27 6 68 13 47 14 59 3 73 -10 12 -10 14 0 8 8 -5 12 0 12 15 0 15 3
20 10 13 6 -6 4 -31 -5 -69z m73 -131 c4 2 7 -9 8 -26 1 -21 -1 -26 -8 -16 -7
9 -8 5 -5 -12 3 -14 1 -34 -4 -45 -6 -14 -8 -3 -6 38 2 32 0 60 -5 63 -4 3 -8
15 -7 27 0 19 2 19 11 -6 5 -15 13 -25 16 -23z m-128 -50 c0 -13 -4 -24 -10
-24 -5 0 -10 14 -10 31 0 17 4 28 10 24 6 -3 10 -17 10 -31z"/>
<path d="M1556 4255 c-11 -8 -15 -15 -10 -15 6 0 19 7 30 15 10 8 15 14 9 14
-5 0 -19 -6 -29 -14z"/>
<path d="M2030 4250 c-9 -6 -10 -10 -3 -10 6 0 15 5 18 10 8 12 4 12 -15 0z"/>
<path d="M2179 4243 c-13 -15 -12 -15 9 -4 23 12 28 21 13 21 -5 0 -15 -7 -22
-17z"/>
<path d="M3880 4244 c0 -8 5 -12 10 -9 6 4 8 11 5 16 -9 14 -15 11 -15 -7z"/>
<path d="M1025 4239 c-13 -5 -15 -8 -5 -9 9 0 6 -6 -10 -15 -14 -8 -20 -14
-14 -15 15 0 61 37 54 43 -3 2 -14 1 -25 -4z"/>
<path d="M1980 4226 c-26 -12 -109 -67 -132 -88 -7 -7 -33 -30 -58 -52 -80
-69 -170 -159 -165 -164 3 -3 35 24 72 59 38 36 100 89 138 119 39 30 72 57
75 60 3 3 25 18 50 35 25 16 47 31 49 32 13 9 -8 8 -29 -1z"/>
<path d="M1125 4220 c-3 -6 1 -7 9 -4 18 7 21 14 7 14 -6 0 -13 -4 -16 -10z"/>
<path d="M1400 4157 c-63 -40 -151 -99 -195 -132 -80 -59 -279 -228 -293 -249
-4 -6 -29 -31 -57 -56 -58 -52 -265 -286 -304 -344 -31 -47 -32 -49 -97 -156
-64 -105 -100 -177 -129 -255 -13 -33 -39 -103 -59 -155 -20 -52 -35 -106 -35
-120 1 -21 3 -20 11 10 67 231 225 543 353 695 23 27 23 24 -9 -45 -55 -121
-102 -257 -92 -268 3 -3 9 9 12 26 4 20 11 29 20 25 19 -7 41 42 26 60 -8 9
-8 17 0 27 8 12 9 11 4 -4 -7 -19 -6 -19 14 -1 11 10 20 26 20 37 0 10 4 18 9
18 5 0 12 9 16 20 3 10 21 34 39 52 17 18 38 49 46 68 8 19 27 48 42 64 15 16
28 33 28 37 0 12 38 49 50 49 5 0 13 8 19 17 5 10 12 16 14 13 3 -3 -21 -50
-53 -106 -32 -56 -67 -128 -79 -160 -44 -118 -84 -220 -103 -264 -11 -24 -24
-54 -28 -66 -10 -26 -46 -227 -55 -309 -4 -33 -13 -87 -21 -120 -15 -63 -31
-284 -20 -274 7 6 37 168 40 214 3 51 39 225 47 225 4 0 5 10 1 22 -3 13 -1
19 5 15 13 -8 36 68 28 92 -3 11 3 36 14 58 25 48 39 109 23 99 -7 -4 -10 -2
-8 6 3 7 16 51 31 96 14 46 38 102 53 124 15 22 34 53 43 69 9 16 19 26 23 22
3 -3 6 2 6 12 0 10 10 34 22 54 35 55 56 93 68 124 12 28 30 37 30 15 1 -7 10
3 20 23 12 23 29 39 46 43 20 5 25 12 21 26 -4 16 0 20 23 20 22 0 31 7 45 38
16 35 79 102 96 102 4 0 10 8 14 19 3 10 14 29 25 41 11 13 20 27 20 32 0 14
-18 9 -24 -8 -5 -12 -8 -13 -20 -2 -14 14 -11 38 6 38 6 0 7 -7 4 -16 -3 -8
-2 -12 4 -9 6 3 10 14 10 23 1 16 1 16 11 0 12 -22 29 -23 29 -3 0 7 8 18 17
24 14 7 15 12 4 25 -11 13 -6 22 33 61 58 58 60 70 3 19 -24 -22 -56 -49 -73
-60 -16 -12 -26 -25 -21 -30 4 -4 13 -2 19 4 16 16 28 15 28 -1 0 -9 -11 -13
-32 -12 -27 2 -42 -6 -87 -49 -57 -53 -74 -72 -115 -121 -33 -39 -33 -29 -1
15 44 60 26 57 -30 -5 -30 -33 -55 -63 -55 -66 0 -3 -19 -30 -41 -60 -28 -36
-39 -46 -34 -29 4 14 8 41 8 60 2 30 14 46 85 113 46 42 87 77 92 77 5 0 21
12 35 27 14 15 25 24 25 18 0 -5 -14 -24 -32 -42 -17 -18 -28 -36 -24 -40 4
-4 48 36 99 88 51 53 118 118 150 144 50 42 59 46 75 34 15 -13 16 -12 4 3
-12 15 -5 22 62 68 65 43 85 60 74 60 -2 0 -55 -33 -118 -73z m-420 -457 c-11
-16 -26 -33 -33 -37 -12 -7 0 11 32 50 23 28 24 20 1 -13z m-200 -114 c0 -2
-8 -10 -17 -17 -16 -13 -17 -12 -4 4 13 16 21 21 21 13z m100 -67 c0 -6 -4 -7
-10 -4 -5 3 -10 11 -10 16 0 6 5 7 10 4 6 -3 10 -11 10 -16z m-20 -16 c-1 -10
-39 -60 -40 -51 0 14 23 58 32 58 4 0 8 -3 8 -7z m-77 -138 c-3 -9 -8 -14 -10
-11 -3 3 -2 9 2 15 9 16 15 13 8 -4z m-203 -115 c0 -5 -5 -10 -11 -10 -5 0 -7
5 -4 10 3 6 8 10 11 10 2 0 4 -4 4 -10z m-30 -81 c0 -6 -4 -7 -10 -4 -5 3 -10
11 -10 16 0 6 5 7 10 4 6 -3 10 -11 10 -16z"/>
<path d="M3898 4224 c-7 -10 52 -114 64 -114 13 0 9 28 -4 34 -7 3 -2 3 11 0
18 -5 22 -3 15 7 -11 18 -57 55 -63 51 -3 -2 -8 4 -11 14 -4 10 -9 13 -12 8z
m40 -59 c-3 -3 -9 2 -12 12 -6 14 -5 15 5 6 7 -7 10 -15 7 -18z"/>
<path d="M2015 4208 c-41 -24 -203 -159 -286 -240 -85 -83 -176 -184 -242
-268 -71 -90 -257 -373 -257 -390 0 -5 -4 -10 -9 -10 -5 0 -11 -8 -15 -17 -3
-10 -10 -25 -16 -33 -43 -65 -163 -276 -240 -425 -51 -99 -96 -184 -100 -190
-4 -5 -13 -26 -20 -45 -21 -56 -49 -119 -88 -200 -20 -41 -37 -79 -37 -85 0
-5 -17 -53 -37 -105 -63 -168 -140 -451 -125 -466 2 -2 10 24 16 58 13 65 89
321 118 393 77 197 147 348 275 592 111 211 150 273 84 132 -62 -135 -86 -189
-86 -202 0 -7 -6 -24 -14 -38 -7 -15 -28 -76 -46 -135 -24 -83 -42 -121 -71
-158 -21 -27 -39 -52 -39 -57 0 -4 -13 -30 -28 -56 -32 -55 -115 -257 -131
-320 -6 -24 -15 -60 -21 -82 -5 -21 -9 -51 -9 -67 2 -27 2 -27 6 -4 9 54 46
176 55 185 11 10 9 2 -9 -57 -5 -16 -3 -19 7 -13 10 6 11 2 5 -21 -5 -16 -8
-53 -6 -81 2 -59 -15 -105 -31 -82 -6 10 -7 5 -4 -16 4 -18 0 -42 -9 -59 -8
-16 -14 -30 -13 -31 2 -1 21 12 43 29 25 20 41 41 42 56 1 14 17 59 37 101 20
42 36 82 36 88 0 6 5 11 11 11 8 0 9 -11 5 -31 -3 -17 -6 -43 -6 -56 0 -18 -4
-24 -15 -19 -10 3 -15 -1 -15 -13 0 -10 -10 -31 -22 -47 -19 -23 -20 -27 -5
-21 32 12 57 -23 55 -75 -1 -26 -6 -44 -10 -42 -4 3 -8 -7 -8 -22 0 -27 1 -27
16 -8 15 19 15 19 10 -1 -3 -11 -8 -54 -12 -95 -5 -63 -40 -288 -83 -545 -16
-89 -27 -217 -22 -240 3 -11 10 36 16 105 7 69 28 215 49 325 72 392 90 512
101 680 10 151 49 435 76 555 49 210 64 264 114 400 55 152 177 420 230 505
17 28 36 61 43 75 6 14 16 32 22 40 42 66 110 183 110 191 0 5 4 9 8 9 5 0 13
9 18 19 16 34 86 111 95 105 5 -3 6 1 3 9 -3 8 2 20 11 27 13 11 15 9 16 -11
1 -13 1 -30 0 -36 -1 -7 5 -13 13 -13 19 0 31 20 27 45 -2 19 -2 19 11 2 16
-22 31 -10 42 33 5 15 4 20 -1 13 -5 -7 -19 -14 -31 -16 -12 -2 -29 -12 -37
-23 -16 -21 -20 -4 -6 24 5 9 14 29 21 44 7 14 22 29 34 32 11 3 33 17 49 31
15 14 27 21 27 15 0 -5 4 -10 8 -10 4 0 6 16 4 35 -3 27 -1 35 12 35 9 0 16 7
16 16 0 10 6 14 14 11 10 -4 13 -1 9 9 -3 9 1 14 11 14 9 0 21 10 25 23 13 31
128 136 221 200 27 19 16 23 -15 5z m-915 -1166 c0 -5 -7 -17 -15 -28 -14 -18
-14 -17 -4 9 12 27 19 34 19 19z m-195 -552 c-9 -41 -17 -33 -9 9 4 17 9 30
11 27 3 -2 2 -19 -2 -36z m-134 -243 c-10 -9 -11 -8 -5 6 3 10 9 15 12 12 3
-3 0 -11 -7 -18z m-108 -242 c-3 -9 -8 -14 -10 -11 -3 3 -2 9 2 15 9 16 15 13
8 -4z m75 -72 c-11 -3 -18 -14 -18 -27 0 -12 -6 -31 -14 -41 -8 -11 -11 -25
-8 -33 3 -8 0 -17 -5 -21 -5 -3 -14 -14 -19 -23 -6 -12 -10 -2 -11 37 -1 38 2
55 13 59 8 3 14 14 14 24 0 25 9 32 39 31 17 -1 20 -3 9 -6z m39 -305 c-3 -8
-6 -5 -6 6 -1 11 2 17 5 13 3 -3 4 -12 1 -19z"/>
<path d="M948 4184 c-38 -20 -36 -28 2 -9 17 9 30 18 30 20 0 7 -1 6 -32 -11z"/>
<path d="M1050 4180 c-14 -11 -45 -30 -70 -42 -25 -12 -65 -37 -89 -55 -75
-57 -191 -154 -191 -159 0 -10 59 30 112 75 30 25 87 68 128 95 41 27 87 58
102 68 15 10 32 18 38 18 5 0 10 5 10 10 0 15 -12 12 -40 -10z"/>
<path d="M2117 4162 c-15 -9 -25 -22 -23 -29 3 -7 -8 -14 -25 -18 -16 -4 -32
-13 -37 -21 -4 -8 -33 -40 -63 -72 -67 -69 -83 -94 -43 -65 45 32 156 133 147
134 -4 0 3 5 16 10 15 6 21 14 17 25 -4 12 -1 14 13 9 19 -6 33 7 37 33 3 16
-5 15 -39 -6z"/>
<path d="M1915 4090 c-3 -6 1 -7 9 -4 18 7 21 14 7 14 -6 0 -13 -4 -16 -10z"/>
<path d="M2515 4090 c-3 -6 1 -7 9 -4 18 7 21 14 7 14 -6 0 -13 -4 -16 -10z"/>
<path d="M2621 3984 c0 -11 3 -14 6 -6 3 7 2 16 -1 19 -3 4 -6 -2 -5 -13z"/>
<path d="M4510 3965 c13 -14 26 -25 28 -25 3 0 -5 11 -18 25 -13 14 -26 25
-28 25 -3 0 5 -11 18 -25z"/>
<path d="M869 3963 c-13 -16 -12 -17 4 -4 9 7 17 15 17 17 0 8 -8 3 -21 -13z"/>
<path d="M2362 3953 c-24 -24 -24 -25 -2 -8 42 33 44 35 37 35 -4 0 -19 -12
-35 -27z"/>
<path d="M2570 3948 c-19 -17 -26 -25 -15 -19 30 16 59 40 54 45 -2 2 -20 -10
-39 -26z"/>
<path d="M2275 3889 c-16 -16 -25 -29 -20 -29 11 1 65 46 65 55 0 12 -17 2
-45 -26z"/>
<path d="M659 3893 c-13 -17 -13 -17 6 -3 11 8 22 16 24 17 2 2 0 3 -6 3 -6 0
-17 -8 -24 -17z"/>
<path d="M2500 3890 c-26 -23 -14 -26 24 -7 14 8 23 17 19 20 -10 11 -18 8
-43 -13z"/>
<path d="M2500 3845 c-7 -9 -11 -17 -9 -20 3 -2 10 5 17 15 14 24 10 26 -8 5z"/>
<path d="M589 3833 c-13 -17 -13 -17 6 -3 11 8 22 16 24 17 2 2 0 3 -6 3 -6 0
-17 -8 -24 -17z"/>
<path d="M705 3790 c-3 -5 -1 -10 4 -10 6 0 11 5 11 10 0 6 -2 10 -4 10 -3 0
-8 -4 -11 -10z"/>
<path d="M2585 3740 c-3 -5 -1 -10 4 -10 6 0 11 5 11 10 0 6 -2 10 -4 10 -3 0
-8 -4 -11 -10z"/>
<path d="M1781 3713 c0 -12 -7 -23 -13 -26 -7 -2 -10 -8 -5 -12 12 -14 29 11
24 36 -4 22 -4 22 -6 2z"/>
<path d="M2204 3678 l-19 -23 23 19 c21 18 27 26 19 26 -2 0 -12 -10 -23 -22z"/>
<path d="M1327 3625 c-11 -16 -13 -23 -5 -20 15 6 42 45 31 45 -5 0 -16 -12
-26 -25z"/>
<path d="M1521 3634 c0 -11 3 -14 6 -6 3 7 2 16 -1 19 -3 4 -6 -2 -5 -13z"/>
<path d="M2196 3635 c-3 -9 -10 -14 -15 -11 -5 3 -14 0 -20 -8 -9 -11 -9 -15
1 -18 13 -5 54 39 45 48 -2 3 -7 -2 -11 -11z"/>
<path d="M1494 3622 c3 -5 0 -13 -6 -15 -9 -4 -10 -6 -1 -6 17 -1 25 16 12 25
-7 4 -9 3 -5 -4z"/>
<path d="M1540 3618 c0 -6 -10 -22 -22 -35 -24 -25 -9 -32 16 -7 15 14 23 54
11 54 -3 0 -5 -5 -5 -12z"/>
<path d="M1700 3600 c0 -5 -9 -10 -20 -10 -31 0 -70 -22 -70 -39 0 -14 2 -14
10 -1 9 13 14 7 11 -12 0 -5 10 -8 24 -8 14 0 24 -5 23 -11 -2 -6 3 -14 10
-16 7 -3 12 5 12 20 0 14 -6 27 -12 30 -8 2 -1 10 15 17 29 14 37 40 12 40 -8
0 -15 -4 -15 -10z"/>
<path d="M1256 3539 c-20 -23 -41 -55 -48 -71 -7 -15 -16 -28 -20 -28 -5 0 -8
-6 -8 -14 0 -8 -3 -16 -7 -18 -5 -1 -32 -41 -62 -88 -30 -47 -69 -107 -87
-135 -106 -167 -237 -433 -309 -631 -20 -55 -45 -121 -55 -149 -30 -81 -42
-124 -38 -140 2 -9 36 73 77 182 41 109 80 209 86 223 31 63 55 118 55 124 0
13 121 250 166 324 26 42 103 162 171 266 68 103 122 190 120 193 -3 2 -21
-15 -41 -38z"/>
<path d="M2110 3549 c0 -5 5 -7 10 -4 6 3 10 8 10 11 0 2 -4 4 -10 4 -5 0 -10
-5 -10 -11z"/>
<path d="M2069 3521 c-13 -11 -21 -22 -18 -25 3 -3 16 5 29 19 28 30 22 33
-11 6z"/>
<path d="M2030 3471 c0 -6 5 -13 10 -16 6 -3 10 1 10 9 0 9 -4 16 -10 16 -5 0
-10 -4 -10 -9z"/>
<path d="M2270 3470 c0 -5 5 -10 11 -10 5 0 7 5 4 10 -3 6 -8 10 -11 10 -2 0
-4 -4 -4 -10z"/>
<path d="M1987 3413 c-4 -3 -7 -11 -7 -17 0 -6 5 -5 12 2 6 6 9 14 7 17 -3 3
-9 2 -12 -2z"/>
<path d="M2581 3304 c0 -11 3 -14 6 -6 3 7 2 16 -1 19 -3 4 -6 -2 -5 -13z"/>
<path d="M2811 3254 c0 -11 3 -14 6 -6 3 7 2 16 -1 19 -3 4 -6 -2 -5 -13z"/>
<path d="M743 3243 c-18 -7 -16 -23 2 -23 8 0 15 7 15 15 0 8 -1 15 -2 14 -2
0 -9 -3 -15 -6z"/>
<path d="M476 3055 c-3 -9 -6 -22 -5 -28 0 -7 5 -1 10 12 5 13 8 26 5 28 -2 2
-6 -3 -10 -12z"/>
<path d="M2211 2944 c0 -11 3 -14 6 -6 3 7 2 16 -1 19 -3 4 -6 -2 -5 -13z"/>
<path d="M2061 2854 c0 -11 3 -14 6 -6 3 7 2 16 -1 19 -3 4 -6 -2 -5 -13z"/>
<path d="M2051 2814 c0 -11 3 -14 6 -6 3 7 2 16 -1 19 -3 4 -6 -2 -5 -13z"/>
<path d="M3247 2816 c-4 -10 -5 -21 -2 -24 9 -9 17 6 13 25 -3 17 -4 17 -11
-1z"/>
<path d="M3247 2703 c6 -109 11 -113 12 -10 1 48 -3 87 -7 87 -5 0 -7 -35 -5
-77z"/>
<path d="M2451 2734 c0 -11 3 -14 6 -6 3 7 2 16 -1 19 -3 4 -6 -2 -5 -13z"/>
<path d="M3000 2675 c0 -8 5 -15 10 -15 6 0 10 7 10 15 0 8 -4 15 -10 15 -5 0
-10 -7 -10 -15z"/>
<path d="M1625 2651 c-8 -17 -12 -31 -7 -31 12 0 37 48 29 56 -3 3 -13 -8 -22
-25z"/>
<path d="M402 2630 c0 -14 2 -19 5 -12 2 6 2 18 0 25 -3 6 -5 1 -5 -13z"/>
<path d="M3441 2539 c-1 -20 6 -50 14 -65 18 -35 18 -26 0 46 -12 51 -13 52
-14 19z"/>
<path d="M195 2508 c-3 -24 -9 -52 -11 -63 -4 -16 -3 -17 4 -5 11 17 26 110
18 110 -2 0 -7 -19 -11 -42z"/>
<path d="M3411 2534 c0 -11 3 -14 6 -6 3 7 2 16 -1 19 -3 4 -6 -2 -5 -13z"/>
<path d="M2371 2524 c0 -11 3 -14 6 -6 3 7 2 16 -1 19 -3 4 -6 -2 -5 -13z"/>
<path d="M2361 2450 c0 -30 -3 -93 -6 -140 -7 -86 -2 -121 32 -217 21 -62 35
-69 29 -15 -3 20 -7 64 -10 97 l-4 60 13 -45 c7 -25 16 -58 20 -74 3 -15 8
-26 11 -23 3 3 -4 43 -16 89 -28 106 -28 108 -29 141 -1 16 -5 26 -11 22 -12
-7 -14 -95 -2 -95 4 0 8 -33 9 -73 l1 -72 -13 50 c-16 55 -19 184 -7 230 5 18
3 48 -5 75 l-12 45 0 -55z"/>
<path d="M3424 2378 c-4 -7 -4 -10 1 -6 4 4 15 2 23 -5 12 -10 14 -9 11 2 -7
20 -26 25 -35 9z"/>
<path d="M2492 2320 c0 -14 2 -19 5 -12 2 6 2 18 0 25 -3 6 -5 1 -5 -13z"/>
<path d="M172 2300 c0 -19 2 -27 5 -17 2 9 2 25 0 35 -3 9 -5 1 -5 -18z"/>
<path d="M381 2193 c1 -62 6 -56 11 15 2 23 0 42 -4 42 -5 0 -7 -26 -7 -57z"/>
<path d="M173 2125 c0 -22 2 -30 4 -17 2 12 2 30 0 40 -3 9 -5 -1 -4 -23z"/>
<path d="M392 2005 c0 -16 2 -22 5 -12 2 9 2 23 0 30 -3 6 -5 -1 -5 -18z"/>
<path d="M402 1905 c0 -16 2 -22 5 -12 2 9 2 23 0 30 -3 6 -5 -1 -5 -18z"/>
<path d="M886 1774 c-3 -9 -6 -41 -6 -72 0 -31 -7 -95 -15 -142 -19 -110 -19
-252 1 -371 16 -99 47 -214 64 -239 14 -22 12 -10 -9 61 -36 116 -63 306 -59
407 3 58 9 96 16 101 8 4 14 54 18 139 7 125 4 153 -10 116z"/>
<path d="M1619 1713 c-13 -16 -12 -17 4 -4 9 7 17 15 17 17 0 8 -8 3 -21 -13z"/>
<path d="M531 1674 c0 -11 3 -14 6 -6 3 7 2 16 -1 19 -3 4 -6 -2 -5 -13z"/>
<path d="M728 1637 c-3 -19 -2 -25 4 -19 6 6 8 18 6 28 -3 14 -5 12 -10 -9z"/>
<path d="M522 1605 c0 -16 2 -22 5 -12 2 9 2 23 0 30 -3 6 -5 -1 -5 -18z"/>
<path d="M565 1580 c-4 -11 -17 -28 -31 -36 -16 -11 -24 -26 -24 -45 0 -16 -4
-29 -8 -29 -4 0 -13 -13 -19 -29 -10 -28 -10 -29 8 -18 11 7 24 30 30 52 6 22
14 42 18 45 12 10 43 71 38 76 -3 3 -8 -4 -12 -16z"/>
<path d="M716 1589 c-13 -37 -27 -101 -23 -105 2 -3 11 21 20 53 9 31 15 59
12 61 -2 3 -7 -1 -9 -9z"/>
<path d="M2595 1538 c12 -53 21 -64 29 -34 7 28 -8 66 -25 66 -7 0 -8 -12 -4
-32z"/>
<path d="M477 1516 c3 -15 10 -29 15 -32 6 -4 7 2 3 17 -10 35 -23 45 -18 15z"/>
<path d="M731 1499 c-13 -39 -14 -46 -2 -33 9 10 24 64 17 64 -2 0 -9 -14 -15
-31z"/>
<path d="M892 1470 c0 -19 3 -44 8 -55 8 -18 9 -18 8 5 0 14 -4 39 -8 55 l-8
30 0 -35z"/>
<path d="M2579 1423 c21 -31 71 -73 87 -73 4 0 16 -7 26 -17 10 -9 21 -14 24
-10 3 3 -14 18 -38 33 -23 15 -50 34 -58 43 -8 9 -26 25 -39 36 l-25 20 23
-32z"/>
<path d="M671 1414 c0 -11 3 -14 6 -6 3 7 2 16 -1 19 -3 4 -6 -2 -5 -13z"/>
<path d="M701 1374 c0 -11 3 -14 6 -6 3 7 2 16 -1 19 -3 4 -6 -2 -5 -13z"/>
<path d="M641 1315 c-6 -22 -11 -49 -10 -60 0 -11 7 3 15 30 7 28 12 55 10 60
-2 6 -8 -8 -15 -30z"/>
<path d="M684 1316 c-3 -21 -4 -39 -1 -42 2 -3 8 11 11 32 4 20 5 38 2 41 -2
3 -8 -11 -12 -31z"/>
<path d="M1602 1313 c-6 -21 -13 -78 -16 -128 -4 -78 -4 -84 6 -47 8 32 16 42
31 42 11 0 45 13 76 29 65 34 88 44 116 47 22 2 128 -47 159 -74 11 -10 16
-12 12 -5 -25 44 -241 151 -337 167 -34 6 -36 5 -47 -31z"/>
<path d="M2000 1153 c0 -6 7 -16 15 -23 36 -29 22 -134 -22 -167 -9 -7 -14
-16 -11 -19 4 -3 21 14 38 38 27 37 31 49 28 89 -3 29 -13 55 -26 70 -12 12
-22 18 -22 12z"/>
<path d="M607 1071 c-4 -35 -5 -66 -3 -68 6 -7 19 103 14 119 -3 7 -8 -16 -11
-51z"/>
<path d="M981 1114 c0 -11 3 -14 6 -6 3 7 2 16 -1 19 -3 4 -6 -2 -5 -13z"/>
<path d="M1601 1014 c-1 -21 19 -88 24 -82 2 2 -3 26 -10 53 -8 28 -14 41 -14
29z"/>
<path d="M1340 997 c0 -5 5 -17 11 -28 14 -27 2 -64 -16 -49 -11 9 -12 6 -8
-12 4 -18 3 -20 -6 -8 -9 12 -11 10 -11 -12 0 -18 -5 -28 -14 -28 -11 0 -14
-11 -11 -49 4 -38 -1 -63 -20 -103 -40 -89 -57 -180 -45 -245 14 -79 18 -75
12 11 -3 58 0 87 17 138 12 36 28 74 36 84 13 17 15 15 17 -31 1 -27 1 -61 0
-75 -1 -19 1 -21 8 -10 5 8 7 33 3 55 -4 32 -1 45 17 65 18 21 21 22 15 5 -17
-49 -15 -57 7 -24 12 20 39 50 59 67 l36 32 58 -90 c31 -50 59 -90 62 -90 2 0
-4 15 -15 33 -11 17 -57 99 -101 181 -82 149 -111 197 -111 183z"/>
<path d="M1848 873 c7 -3 16 -2 19 1 4 3 -2 6 -13 5 -11 0 -14 -3 -6 -6z"/>
<path d="M1027 863 c-4 -3 -7 -11 -7 -17 0 -6 5 -5 12 2 6 6 9 14 7 17 -3 3
-9 2 -12 -2z"/>
<path d="M622 790 c0 -14 4 -36 8 -50 8 -24 8 -24 8 5 0 17 -3 39 -8 50 -8 18
-9 18 -8 -5z"/>
<path d="M1256 753 c-3 -10 -9 -25 -13 -33 -5 -13 -4 -13 9 -2 18 14 31 52 18
52 -4 0 -10 -8 -14 -17z"/>
<path d="M2325 599 c-229 -39 -402 -59 -535 -59 -126 0 -142 -5 -133 -38 8
-33 40 -90 66 -119 17 -19 31 -23 77 -23 70 0 221 25 273 45 20 8 40 15 42 15
10 0 4 -86 -8 -105 -29 -49 -61 -84 -83 -89 -13 -4 -24 -11 -24 -16 0 -6 -6
-10 -14 -10 -21 0 -30 -20 -16 -33 10 -9 14 -9 17 0 2 7 10 10 17 7 8 -3 16 5
20 18 l7 23 9 -22 c13 -31 24 -29 16 2 -4 17 -2 25 6 25 7 0 28 21 46 48 41
60 43 120 7 212 -14 35 -24 64 -22 65 2 2 142 21 227 31 30 3 66 12 80 20 l25
13 -25 -1 c-14 0 -47 -4 -75 -9z m-244 -96 c13 -16 12 -17 -3 -4 -17 13 -22
21 -14 21 2 0 10 -8 17 -17z m12 -32 c3 9 6 6 6 -7 1 -13 -8 -25 -24 -32 -51
-24 -75 -7 -34 22 15 10 20 21 15 33 -4 12 0 10 13 -6 14 -18 20 -21 24 -10z"/>
<path d="M1302 540 c0 -14 2 -19 5 -12 2 6 2 18 0 25 -3 6 -5 1 -5 -13z"/>
<path d="M2719 473 c-13 -16 -12 -17 4 -4 16 13 21 21 13 21 -2 0 -10 -8 -17
-17z"/>
<path d="M4420 474 c0 -5 -9 -20 -20 -32 -12 -12 -18 -22 -14 -22 4 0 -3 -11
-16 -25 -13 -14 -21 -28 -17 -31 9 -9 32 16 56 62 12 21 21 32 21 25 0 -8 3
-12 6 -8 3 3 1 14 -5 24 -6 10 -11 13 -11 7z"/>
<path d="M1670 395 c-7 -9 -11 -18 -8 -20 3 -3 11 1 18 10 7 9 11 18 8 20 -3
3 -11 -1 -18 -10z"/>
<path d="M4085 361 c-33 -15 -71 -33 -85 -40 l-25 -11 27 5 c34 6 178 74 158
74 -8 0 -42 -13 -75 -28z"/>
<path d="M3940 295 c-14 -8 -32 -14 -40 -15 -8 0 -38 -16 -65 -36 -59 -43 -53
-42 51 11 95 48 88 44 83 49 -2 2 -15 -2 -29 -9z"/>
<path d="M4520 280 c-8 -19 -18 -39 -22 -45 -5 -5 -18 -24 -31 -42 -12 -18
-38 -52 -57 -75 l-35 -43 40 32 c103 83 166 152 99 108 -28 -18 -26 -12 9 36
10 15 17 35 15 45 -2 14 -7 11 -18 -16z"/>
<path d="M3900 216 c0 -2 7 -9 15 -16 13 -11 14 -10 9 4 -5 14 -24 23 -24 12z"/>
<path d="M2623 149 c-18 -5 -33 -14 -33 -19 0 -6 -8 -10 -17 -10 -15 0 -16 -2
-3 -10 17 -10 182 -11 199 0 20 12 1 39 -27 38 -15 0 -40 2 -57 5 -16 3 -45 1
-62 -4z m12 -29 c-3 -5 -15 -10 -26 -10 -11 0 -17 5 -14 10 3 6 15 10 26 10
11 0 17 -4 14 -10z"/>
<path d="M2790 141 c0 -10 55 -9 66 2 4 4 -9 7 -29 7 -20 0 -37 -4 -37 -9z"/>
<path d="M1495 60 c-4 -28 -5 -54 -2 -56 3 -3 8 18 12 46 4 28 5 54 2 56 -3 3
-8 -18 -12 -46z"/>
<path d="M2785 74 c19 -16 19 -16 1 -10 -10 4 -37 0 -60 -8 -39 -14 -141 -31
-178 -30 -10 0 -20 -6 -23 -14 -4 -11 1 -13 22 -8 16 3 89 15 163 27 154 24
224 22 352 -11 49 -12 96 -20 105 -18 32 6 -190 60 -277 68 -47 4 -94 10 -105
14 l-20 8 20 -18z"/>
</g>
</svg>
