<?xml version="1.0" encoding="utf-8"?>
<!-- Generator: Adobe Illustrator 25.4.1, SVG Export Plug-In . SVG Version: 6.00 Build 0)  -->
<svg version="1.1" id="Layer_1" xmlns="http://www.w3.org/2000/svg" xmlns:xlink="http://www.w3.org/1999/xlink" x="0px" y="0px"
	 viewBox="0 0 1600 1200" style="enable-background:new 0 0 1600 1200;" xml:space="preserve">
<style type="text/css">
	.st0{fill:#7EBC12;}
</style>
<g>
	<path class="st0" d="M1299.1,855c0,12.9,0.1,24.3,0,35.6c-0.2,17.7,0.8,35.4-4.3,53c-14,49-59.2,82.2-106,82.1
		c-78.6-0.1-157.2,0-235.7,0c-188.2,0-376.3-0.1-564.5,0.3c-22.4,0-43-4.8-61.8-16.5c-29.3-18.3-47.3-44.5-52.5-78.8
		c-1.4-9.2-1.9-18.5-1.9-27.8c-0.1-261.5-0.1-523-0.1-784.4c0-33.9,11.4-63.1,36.4-86.5C330.3,11.6,356,1.2,385.8,1.2
		c260,0,519.9,0,779.9,0.2c13.9,0,28.1,0.1,41.8,2.3c44,7.2,81.5,44.6,88.9,88.6c2.4,14.5,2.1,29.5,2.6,44.3c0.4,11,0.1,22,0.1,34.6
		c-4.5,0.2-8.5,0.6-12.6,0.6c-134.6,0-269.3,0-403.9,0c-31.4,0-62.9,0-94.3,0.1c-36.5,0.1-66.9,13.9-90.4,41.8
		c-16,19.1-24.7,41.3-25.8,66.3c-0.3,5.9-0.1,11.9-0.1,17.8c0,146.4,0.2,292.9-0.2,439.3c-0.1,29.8,8.4,56.1,27.9,78.3
		c20.7,23.6,46.8,38,78.6,38.9c34,0.9,68,0.4,101.9,0.4c135.1,0,270.1,0,405.2,0C1289.3,855,1293.1,855,1299.1,855z"/>
	<path class="st0" d="M787.1,741c0-151.5,0-302.4,0-454c189.4,0,378.2,0,567.7,0c0,151.5,0,302.4,0,453.3
		C1345.8,742.5,806.9,743.3,787.1,741z M1014.5,428.7c-45-1.9-85.4,37.6-85.8,83.9c-0.5,44.9,35,86.5,84.9,86.4
		c48.4-0.1,85.4-36.2,85.9-84.3C1100,460.9,1056.4,428.1,1014.5,428.7z"/>
	<path class="st0" d="M560.7,1195.9c-14.3,0-27.3,0-41.3,0c-3.8-13.1-7.5-26-11.9-40.9c-4.3,14.8-8,27.6-11.9,40.9
		c-14,0-27.4,0-41.5,0c-11.5-36.6-22.8-72.9-34.2-109.1c8.8-3.1,25.7-3.6,41.1-1.2c4.2,12.2,8.6,25,13.6,39.7
		c5.3-14.4,9.9-26.9,14.8-40.3c11.6,0,23.3,0,36.1,0c4.4,12.6,8.9,25.6,14.3,41.2c5.3-15.4,9.7-27.9,14.3-41.4
		c13.5-1.1,26.9-0.5,41.6-0.4C583.9,1122.1,572.5,1158.4,560.7,1195.9z"/>
	<path class="st0" d="M1315.3,1198.8c-9-1.2-18.4-1.6-27.4-3.9c-20.6-5.2-34.3-17.7-38.4-39.3c-2.5-13.2-2-26.2,2.9-38.7
		c5.4-13.8,15.4-23.2,29.6-27.7c22-7,44.3-7.3,66.2-0.3c18.4,5.9,29.7,18.2,33.3,37.8c2.2,12.1,1.9,23.8-1.3,35.2
		c-5.4,18.9-19.5,29.3-38.1,33.4C1333.4,1197.2,1324.5,1197.7,1315.3,1198.8z M1340.3,1142.9c0.8-20.3-7.8-24.2-23.8-25.4
		c-16.8-1.4-26.5,7.5-26.9,23.2c-0.4,15.1,8.7,24.1,24.6,24.3C1331.3,1165.1,1340,1157.8,1340.3,1142.9z"/>
	<path class="st0" d="M1024,1126.7c0,10.3,0,18.7,0,28c-2.5,0.2-5.7,0.7-9,0.7c-13.6,0.1-27.2,0-40.8,0.1c-3.8,0-7.8-0.1-8.2,6
		c10.5,2.9,21.1,1,31.4,1.4c10.1,0.3,20.2,0.1,31,0.1c0,11.3,0,21.3,0,31.3c-9.1,2.5-89.3,3-102.9,0.5c0-36.2,0-72.4,0-108.5
		c10-2.6,87.6-3.1,102.7-0.7c1.9,10.6,0.7,21.3,0.6,32.7c-21.5,2.1-42.2-0.4-62.7,1.6c-0.1,7,4.1,6.8,7.9,6.8
		c11.9,0.1,23.8,0,35.7,0C1014,1126.7,1018.2,1126.7,1024,1126.7z"/>
	<path class="st0" d="M717.1,1196c-14.7,0-27.7,0-41.2,0c-2-4.8-3.9-9.4-6.3-15c-13.2-1.3-26.6-0.2-40.3-0.6
		c-2.3,5.3-4.4,9.8-7,15.8c-12.7,0.4-26.1,0.4-41,0c11.9-37.9,23.4-74.7,35-111.5c22.3,0,43.4,0,65.6,0
		C693.5,1121.4,705.1,1158,717.1,1196z M659.7,1149.1c-2.7-11.5-6-21.4-11-33.1c-3.8,12.2-6.9,22.1-10.4,33.1
		C645.7,1149.1,651.8,1149.1,659.7,1149.1z"/>
	<path class="st0" d="M235.6,1162.8c17.6,0,36.1,0,55.3,0c1.9,11.5,0.7,21.8,0.9,32.8c-3.4,0.4-5.9,0.9-8.3,0.9
		c-21.2,0.1-42.5,0.2-63.7,0c-17.1-0.2-31.9-15.4-32.2-32.8c-0.3-14.4-0.1-28.8,0-43.3c0.1-18.6,14.3-35.1,32.6-35.9
		c23.2-1,46.6-0.2,71.4-0.2c0.1,6.1,0.3,11.5,0.3,16.8c0,5.4,0,10.9,0,17.2c-19.7,2.3-38.8-0.5-57,1.7
		C226.1,1132.1,226.2,1150.8,235.6,1162.8z"/>
	<path class="st0" d="M351.2,1120.3c-7.5,16-7.1,30.2,1.1,42.1c17.7,0,36.3,0,55.9,0c1.9,11.3,1.1,21.7,0.8,32.8
		c-3,0.4-5.8,1.2-8.6,1.2c-20.4,0.1-40.7,0.2-61.1,0c-19.5-0.2-34.2-15-34.4-34.8c-0.2-14-0.1-28,0-42c0.2-17,13.8-34,30.8-35
		c24-1.4,48.1-0.3,72.9-0.3c0,11.5,0,21.9,0,33.8C389.9,1121,370.4,1117.3,351.2,1120.3z"/>
	<path class="st0" d="M1120.5,1195.7c-14.2,0-26.7,0-40.7,0c0-25.5,0-50.2,0-76c-12.9-0.4-24.5-0.8-36.6-1.3c0-11.3,0-21.3,0-32.2
		c2-0.6,4.3-1.9,6.6-1.9c33.9-0.1,67.9-0.1,101.8,0c1.2,0,2.4,0.7,4.2,1.2c0,10.5,0,20.9,0,33c-11.1,0-22.3,0-34.5,0
		c-1.6,14-0.6,26.6-0.8,39.2C1120.3,1169.9,1120.5,1182.2,1120.5,1195.7z"/>
	<path class="st0" d="M826.7,1195.5c1.4-37-3.2-73.3-0.3-110.4c13.9,0,26.8,0,41,0c1,26-0.2,51.2,0.8,77.8c14.7,0,28.4,0,42.9,0
		c0,11.4,0,21.4,0,31.4C902.3,1196.8,848,1197.6,826.7,1195.5z"/>
	<path class="st0" d="M728.2,1193.9c0-35.9,0-71.8,0-109.3c13.2-0.6,26.1-0.7,40.2,0.2c0,25.8,0,51,0,77.8c14.9,0,28.6,0,42.9,0
		c1.9,11.8,1.3,22,0.6,32.2C796.4,1197.7,736.6,1197,728.2,1193.9z"/>
	<path class="st0" d="M1235,1195.7c-13.7,0-26.2,0-39.4,0c0-36.8,0-73,0-110.3c13.1-2.1,25.9-1,39.4-0.8
		C1235,1121.9,1235,1158.1,1235,1195.7z"/>
	<path class="st0" d="M1180.8,1195.7c-13.4,0-25.9,0-39.2,0c0-10.6,0-20.6,0-31c6.1-3.1,12.9-1.2,19.5-1.5
		c6.2-0.3,12.5-0.1,19.7-0.1C1180.8,1174.2,1180.8,1184.4,1180.8,1195.7z"/>
</g>
</svg>
