<?xml version="1.0" encoding="utf-8"?>
<!-- Generator: Adobe Illustrator 25.4.1, SVG Export Plug-In . SVG Version: 6.00 Build 0)  -->
<svg version="1.1" id="Layer_1" xmlns="http://www.w3.org/2000/svg" xmlns:xlink="http://www.w3.org/1999/xlink" x="0px" y="0px"
	 viewBox="0 0 1600 1200" style="enable-background:new 0 0 1600 1200;" xml:space="preserve">
<style type="text/css">
	.st0{fill:#7EBC12;}
</style>
<g>
	<g id="Page-1_00000025423331021887880090000000847303190323581108_">
		<g id="full_00000138533873374161077100000004502600351394766483_">
			<path id="Combined-Shape_00000097497071657644184870000003593495028393729670_" class="st0" d="M721.3,1023.2l-67-10.2l-35-99.1
				l24.8-2.9l27.7,78.7l49.5,8.7c1.5-8.7,5.8-17.5,10.2-24.8c7.3-11.7,17.5-20.4,29.1-26.2v-21.9c-51-10.2-96.1-36.4-129.6-72.8
				c-4.4-5.8-8.7-10.2-13.1-16l21.9-11.7c2.9,4.4,5.8,8.7,8.7,11.7c24.8,29.1,59.7,51,97.6,61.2c11.7,4.4,24.8,7.3,37.9,8.7v128.2
				l-39.3-5.8c2.9,10.2,7.3,18.9,14.6,26.2c10.2,10.2,23.3,16,37.9,16s27.7-5.8,37.9-16c7.3-7.3,11.7-16,14.6-24.8l-37.9,5.8v-131
				c13.1-1.5,26.2-4.4,37.9-8.7c37.9-10.2,71.4-32,97.6-61.2c2.9-4.4,5.8-7.3,10.2-11.7l21.9,11.7c-4.4,5.8-8.7,11.7-13.1,16
				c-32,37.9-78.7,64.1-129.6,72.8v24.8c10.2,5.8,18.9,14.6,26.2,23.3c5.8,8.7,8.7,17.5,11.7,27.7l52.4-8.7l27.7-78.7l24.8,2.9
				l-35,99.1l-68.5,11.7c-1.5,18.9-10.2,35-21.9,46.6c-14.6,14.6-33.5,23.3-55.4,23.3s-40.8-8.7-55.4-23.3
				C731.5,1058.1,722.8,1042.1,721.3,1023.2z M762.1,976.6c-2.9,2.9-5.8,5.8-8.7,10.2s-5.8,10.2-7.3,16l14.6,2.9v-29.1L762.1,976.6
				L762.1,976.6z M849.5,1002.8c-1.5-5.8-4.4-11.7-7.3-17.5c-1.5-2.9-2.9-4.4-5.8-7.3v26.2L849.5,1002.8z M1234.1,104l199.6,265.1
				L1209.3,608l-126.7-33.5l-7.3,49.5l-32,4.4c-5.8-32-20.4-62.6-39.3-88.9l17.5-16c14.6,18.9,24.8,39.3,33.5,61.2l5.8-40.8
				l139.8,37.9l199.6-214.1l-116.5-157.3l59.7,129.6l-135.5,131.1l-24.8-10.2L1202,442l4.4-4.4l13.1-13.1l0,0l93.2-90.3
				l-100.5-218.5L1234.1,104z M836.4,459.4l75.7-69.9l33.5,1.5l-24.8,23.3l-23.3,21.9c26.2,8.7,51,20.4,72.8,36.4L953,490
				c-21.9-16-48.1-27.7-75.7-35L867,465.3C859.7,463.8,848.1,460.9,836.4,459.4z M977.7,393.9L977.7,393.9l132.6,7.3l68.5,30.6
				l-18.9,18.9l-55.4-24.8l-14.6-1.5l-72.8,71.4L989.4,522c-5.8-5.8-11.7-11.7-17.5-17.5l17.5-17.5l0,0l13.1-13.1l0,0l52.4-52.4
				l-100.5-5.8L977.7,393.9z M813.1,565.8v-83c7.3,0,16,1.5,24.8,2.9v24.8l0,0v37.9c20.4,5.8,39.3,14.6,55.4,27.7l29.1-26.2
				c-17.5-14.6-37.9-24.8-59.7-32v-26.2c36.4,11.7,69.9,32,96.1,58.3l-39.3,35l0,0l-7.3,7.3c13.1,13.1,23.3,27.7,30.6,43.7
				c1.5,1.5,1.5,2.9,2.9,5.8L923.8,652c-1.5-1.5-1.5-2.9-1.5-4.4c-13.1-29.1-36.4-52.4-65.6-65.6
				C840.8,573.1,827.7,568.7,813.1,565.8z M955.9,583.2l17.5-16c20.4,26.2,36.4,58.3,43.7,91.8l30.6-4.4l0,0l24.8-4.4l-18.9,135.5
				l-59.7,87.4l-5.8,17.5l-24.8-1.5l8.7-26.2l58.3-85.9l13.1-96.1l-11.7,1.5l0,0l-35,4.4l-39.3,5.8c0,4.4,0,8.7,0,11.7
				c0,20.4-2.9,40.8-10.2,58.3l35,17.5c8.7-21.9,14.6-45.2,16-69.9l24.8-4.4c0,39.3-10.2,75.7-29.1,106.3L938.5,783l-1.5-1.5
				c-4.4,8.7-10.2,16-16,23.3c-20.4,24.8-49.5,45.2-83,53.9V876c-7.3,2.9-16,4.4-24.8,5.8V590.5c8.7,1.5,16,4.4,24.8,7.3v237.4
				c24.8-8.7,48.1-23.3,64.1-43.7c20.4-24.8,32-55.4,32-88.9V694l-36.4,5.8v62.6h-24.8v-84.5L992.3,659
				C986.5,632.8,973.3,606.6,955.9,583.2z M365.9,104l20.4,13.1L285.8,335.6l93.2,90.3l0,0l13.1,13.1l4.4,4.4l18.9,18.9l-24.8,10.2
				L255.2,341.4l59.7-129.6L198.4,367.7L398,581.8l139.8-37.9l5.8,40.8c8.7-21.9,20.4-42.2,33.5-61.2l17.5,16
				c-18.9,26.2-32,56.8-39.3,88.9l-32-4.4l-7.3-49.5L389.2,608L166.3,369.1L365.9,104z M652.9,391l33.5-1.5l75.7,69.9
				c-10.2,1.5-21.9,2.9-30.6,5.8L721.3,455c-27.7,7.3-52.4,18.9-75.7,35l-17.5-17.5c21.9-16,46.6-27.7,72.8-36.4l-23.3-21.9
				L652.9,391z M489.7,401.2l134-7.3l-1.5,1.5l23.3,21.9l-102,5.8l52.4,52.4l0,0l13.1,13.1l0,0l17.5,17.5
				c-5.8,5.8-11.7,10.2-17.5,17.5l-27.7-26.2L508.5,426l-14.6,1.5l-55.4,24.8l-18.9-18.9L489.7,401.2z M749,487.1
				c10.2-1.5,26.2-2.9,36.4-4.4v335c-8.7-1.5-16-4.4-24.8-7.3V587.6v-43.7v-35c-32,5.8-59.7,20.4-84.5,39.3l29.1,26.2
				c10.2-7.3,20.4-13.1,30.6-18.9v27.7c-26.2,14.6-48.1,37.9-59.7,67L654.2,640c7.3-18.9,18.9-35,33.5-49.5l-7.3-5.8l0,0l-39.3-36.4
				C670.4,519.2,708.2,497.3,749,487.1z M582.9,659c7.3-35,21.9-65.6,43.7-91.8l17.5,16c-17.5,23.3-30.6,49.5-36.4,78.7l119.5,18.9
				v84.5h-24.8v-62.6l-36.4-5.8c0,2.9,0,5.8,0,8.7c0,33.5,11.7,64.1,32,88.9c13.1,16,29.1,27.7,48.1,36.4l0,0
				c1.5,1.5,2.9,1.5,4.4,2.9c1.5,0,2.9,1.5,4.4,1.5s2.9,1.5,4.4,1.5s1.5,0,2.9,1.5l0,0c7.3,2.9,16,4.4,24.8,5.8V882
				c-8.7-1.5-16-2.9-24.8-5.8v-13.1c-33.5-8.7-61.2-27.7-83-53.9c-5.8-7.3-11.7-14.6-16-23.3h-1.5L606.3,815
				c-17.5-32-27.7-68.5-29.1-106.3l24.8,4.4c1.5,24.8,5.8,48.1,14.6,69.9l35-17.5c-7.3-18.9-10.2-37.9-10.2-58.3c0-4.4,0-8.7,0-11.7
				l-37.9-8.7l-35-5.8l0,0l-11.7-1.5l13.1,96.1l58.3,85.9l8.7,26.2l-24.8,2.9l-5.8-17.5l-59.7-87.4l-18.9-135.5l24.8,4.4l0,0
				L582.9,659z"/>
		</g>
	</g>
</g>
</svg>
