<?xml version="1.0" encoding="utf-8"?>
<!-- Generator: Adobe Illustrator 25.4.1, SVG Export Plug-In . SVG Version: 6.00 Build 0)  -->
<svg version="1.1" id="Layer_1" xmlns="http://www.w3.org/2000/svg" xmlns:xlink="http://www.w3.org/1999/xlink" x="0px" y="0px"
	 viewBox="0 0 1600 1200" style="enable-background:new 0 0 1600 1200;" xml:space="preserve">
<style type="text/css">
	.st0{fill:#7EBC12;}
</style>
<g id="Layer_2">
	<g id="Layer_1-2">
		<path class="st0" d="M393.6,124.7l-28.1-28.9c-2.1,26.5-22.1,48.1-48.3,52.1l28.8,26.8l1033.4,963.4L393.6,124.7z M461.8,403.9
			V979c20.4-21.4,53.8-23.7,76.8-5.1V588l622.7,607.1h107.3L461.8,403.9z M1187.2,271c-14.8,0-29.1-5.7-39.8-16v389.2l-611.3-607
			H417.7l806.6,789.6V257.3C1214,266.2,1200.8,271,1187.2,271z"/>
		<path class="st0" d="M308.5,0C258,0,217,40.9,217,91.4s40.9,91.5,91.4,91.5s91.5-40.9,91.5-91.4c0,0,0,0,0-0.1
			C399.9,41,359,0.1,308.5,0z M317.2,147.8c-2.9,0.5-5.8,0.7-8.7,0.7c-31.6,0-57.3-25.6-57.3-57.2S276.8,34,308.4,34
			s57.3,25.6,57.3,57.2v0.1c0,1.5,0,3,0,4.4C363.6,122.2,343.5,143.8,317.2,147.8z"/>
		<path class="st0" d="M1187.2,122.4c-50.5,1.3-90.4,43.2-89.1,93.7c1.2,48.7,40.4,87.9,89.1,89.1c12.8,0,25.4-2.7,37.1-7.9
			c46.1-20.5,67-74.4,46.5-120.6C1256.1,143.7,1223.3,122.4,1187.2,122.4z M1224.3,257.3c-24,20.5-60.1,17.6-80.6-6.4
			s-17.6-60.1,6.4-80.6s60.1-17.6,80.6,6.4c8.8,10.4,13.7,23.5,13.7,37.1C1244.4,230.5,1237,246.4,1224.3,257.3z"/>
		<path class="st0" d="M538.8,934.4c-46.5-19.7-100.2,2.1-119.8,48.6s2.1,100.2,48.6,119.8c46.5,19.7,100.2-2.1,119.8-48.6
			c4.8-11.3,7.2-23.4,7.2-35.6C594.7,981.9,572.7,948.6,538.8,934.4z M503,1075.8c-31.6,0-57.1-25.7-57.1-57.2s25.7-57.1,57.2-57.1
			c31.6,0,57.1,25.6,57.1,57.2C560.2,1050.2,534.6,1075.8,503,1075.8z"/>
	</g>
</g>
</svg>
