<?xml version="1.0" encoding="utf-8"?>
<!-- Generator: Adobe Illustrator 25.4.1, SVG Export Plug-In . SVG Version: 6.00 Build 0)  -->
<svg version="1.1" id="Layer_1" xmlns="http://www.w3.org/2000/svg" xmlns:xlink="http://www.w3.org/1999/xlink" x="0px" y="0px"
	 viewBox="0 0 1600 1200" style="enable-background:new 0 0 1600 1200;" xml:space="preserve">
<style type="text/css">
	.st0{fill:#7EBC12;}
</style>
<g>
	<path class="st0" d="M795.3,482.9C598.1,346.2,402.2,210.4,200,70.2c65.6,0,123.6,0,189.1,0c131,90.6,268,185.4,406.8,281.4
		c139.2-95,276.8-188.9,414.1-282.6c60.6,0,120.5,0,190,0C1194.4,209.7,996,345.5,795.3,482.9z"/>
	<path class="st0" d="M1264.2,335.7c0,46.6,0,88.7,0,132.9c-82.5,57.1-165.9,114.7-250.5,173.2c-33.5-17.3-61.8-41-97-65.6
		C1033.5,495.4,1147.4,416.6,1264.2,335.7z"/>
	<path class="st0" d="M890.4,1041.6C703.9,913,519.6,786,331.3,656.2c0,48.2,0,89.9,0,132.3c154.5,106.5,308.4,212.6,463.5,319.6
		L890.4,1041.6z"/>
	<path class="st0" d="M1121.8,880.5c-264.5-182.3-526.4-362.9-791-545.3c0,47.7,0,89.8,0,131.8c231.9,159.9,462.9,319.2,695.7,479.8
		L1121.8,880.5z"/>
	<path class="st0" d="M1263.7,781.7c0-40,0-76.6,0-118.7c-40.1,27.5-75.9,52.1-114.1,78.3c30.7,21.8,57.1,40.6,85.1,60.6
		L1263.7,781.7z"/>
</g>
</svg>
